<?xml version="1.0" encoding="UTF-8"?>
<!DOCTYPE svg PUBLIC "-//W3C//DTD SVG 1.1//EN" "http://www.w3.org/Graphics/SVG/1.1/DTD/svg11.dtd">
<!-- Creator: CorelDRAW -->
<svg xmlns="http://www.w3.org/2000/svg" xml:space="preserve" width="50mm" height="50mm" version="1.1" style="shape-rendering:geometricPrecision; text-rendering:geometricPrecision; image-rendering:optimizeQuality; fill-rule:evenodd; clip-rule:evenodd"
viewBox="0 0 5000 5000"
 xmlns:xlink="http://www.w3.org/1999/xlink"
 xmlns:xodm="http://www.corel.com/coreldraw/odm/2003">
 <defs>
  <style type="text/css">
   <![CDATA[
    .str1 {stroke:black;stroke-width:141.11;stroke-miterlimit:22.9256}
    .str0 {stroke:#373435;stroke-width:20;stroke-miterlimit:22.9256}
    .fil2 {fill:none}
    .fil0 {fill:black}
    .fil1 {fill:#38B6FF}
   ]]>
  </style>
 </defs>
 <g id="Camada_x0020_1">
  <metadata id="CorelCorpID_0Corel-Layer"/>
  <circle class="fil0 str0" cx="4164.22" cy="1570.11" r="665.47"/>
  <circle class="fil0 str0" cx="824.62" cy="1575.53" r="640.2"/>
  <circle class="fil0 str0" cx="2487.86" cy="1272.72" r="978.15"/>
  <path class="fil1" d="M1196.96 3737.26l9.35 658.17c5.54,123.44 97.01,225.57 187.39,270.34 101.99,50.53 276.2,34.63 423.11,34.63l686.62 -0.03c203.48,-0.75 476.73,35.25 673.01,5.54 145.16,-21.97 442.41,28.41 543.8,-142.8 28.53,-48.17 61,-106.71 61,-177.4l0 -858.25c0,-425.09 -329.4,-871.28 -719.1,-1026 -232.23,-92.2 -426.59,-80.18 -692.24,-80.18 -187.76,0 -374.72,56.3 -505.32,114.53 -64.61,28.81 -134.53,74.19 -189.47,115.67 -189.38,142.98 -323.24,302.26 -400.69,533.86 -51.99,155.47 -77.46,346.25 -77.46,551.92z"/>
  <path class="fil1" d="M1664.23 1229.27c0,210.66 31.84,366.07 155.15,531.44 268.68,360.29 756.15,457.17 1139.88,200.96 206.96,-138.18 364.25,-390.37 364.25,-646.58 0,-273.26 -65.72,-450.88 -255.08,-641.31 -234.07,-235.36 -593.72,-295.08 -904.38,-165.31 -130.76,54.63 -258.54,161.19 -339.2,271.11 -89.34,121.73 -160.62,282.62 -160.62,449.69z"/>
  <path class="fil1" d="M52.63 3031.59l0 1106.18c0,128.65 127.69,257.48 295.62,257.48 675.56,0 572.72,35.3 572.02,-95.06 -2.4,-446.62 -39.27,-1024.06 168.72,-1395.64 123,-219.74 178.8,-237.1 241.48,-330.7 -79.76,-108.85 -324.09,-152.57 -476.81,-152.57 -134.1,0 -274.4,-3.5 -390.94,47.72 -97.81,42.98 -120.75,62.11 -199.1,125.12 -97.77,78.63 -210.99,263.45 -210.99,437.47z"/>
  <path class="fil1" d="M3657.27 2573.85c75.49,112.74 187.43,172.75 299.81,453.55 149.16,372.74 110.24,932.09 110.24,1367.85l562.63 0c172.81,0 305.15,-128.38 305.15,-267.01l0 -1096.65c0,-260.07 -187.73,-464.86 -410.08,-562.59 -148.87,-65.43 -515.23,-62.61 -668.76,-10.85 -34.4,11.6 -77,28.75 -105.68,46.9 -26.24,16.59 -78.07,48 -93.31,68.8z"/>
  <path class="fil1" d="M291.03 1553.5c0,172.81 37.98,280.46 159.68,402.94 347.68,349.94 889.29,33.7 889.29,-336.19 0,-187.27 -34.39,-297.43 -159.54,-422.16 -321.15,-320.06 -889.43,-78.79 -889.43,355.41z"/>
  <path class="fil1" d="M3647.74 1553.5c0,104.74 2.92,161.34 53.81,260.87 199.27,389.76 739.52,386.45 938.12,6.32 226.27,-433.13 -226.68,-926.1 -677.25,-724.94 -168.64,75.29 -314.68,246.47 -314.68,457.75z"/>
  <path class="fil2 str1" d="M52.82 3904.18c0.22,-184.14 0.61,-544.25 0.75,-723.33 0.15,-179.08 0,-177.16 1.53,-187.65 1.52,-10.48 4.7,-33.4 8.67,-53.91 3.99,-20.5 8.78,-38.61 19.12,-66.38 10.36,-27.79 26.29,-65.27 45.56,-101.24 19.27,-36 41.91,-70.53 67.43,-101.83 25.54,-31.33 53.98,-59.41 85.92,-86.04 31.93,-26.65 67.39,-51.86 98.12,-70.74 30.74,-18.88 56.77,-31.47 85.48,-42.7 28.71,-11.24 60.11,-21.14 89.94,-28.16 29.85,-7.04 58.12,-11.21 86.23,-14.09 28.11,-2.88 56.02,-4.45 91.34,-5.37 35.32,-0.92 78.05,-1.19 114.42,-0.58 36.36,0.58 66.38,2.05 97.95,5.08 31.59,3.03 64.76,7.6 95.53,13.22 30.77,5.59 59.14,12.17 86.38,20.02 27.26,7.84 53.35,16.92 77.2,27.11 23.85,10.17 45.42,21.43 63.02,32.49 17.6,11.04 31.18,21.84 40.4,29.95 9.23,8.11 14.04,13.48 17.09,17.02 3.05,3.51 4.31,5.15 3.71,7.77 -0.58,2.59 -3.03,6.15 -20.56,27.21 -17.52,21.06 -50.13,59.63 -77.66,94.01 -27.53,34.37 -49.97,64.54 -69.55,93.08 -19.56,28.54 -36.24,55.44 -51.33,81.22 -15.08,25.79 -28.56,50.45 -41.69,77.47 -13.12,27.02 -25.92,56.39 -35.75,80.84 -9.83,24.45 -16.71,44.01 -25.2,71.92 -8.48,27.89 -18.6,64.16 -26.08,93.6 -7.48,29.41 -12.37,52 -20.67,97.56 -8.28,45.54 -20,114.03 -26.05,161.19 -6.03,47.13 -6.37,72.89 -9.54,139.78 -3.17,66.89 -9.18,174.91 -10.97,246.69 -1.76,71.78 0.63,107.32 2.28,161.53 1.67,54.2 2.59,127.05 4.19,191.2 1.62,64.13 3.92,119.55 4.14,150.25 0.24,30.67 -1.6,36.58 -4.1,40.57 -2.46,4 -5.56,6.08 -15.1,8.38 -9.54,2.27 -25.52,4.77 -114.63,5.47 -89.12,0.7 -251.39,-0.41 -347.12,-1.86 -95.72,-1.48 -124.94,-3.32 -145.01,-5.55 -20.07,-2.25 -30.99,-4.91 -48.27,-11.47 -17.29,-6.56 -40.92,-17.02 -64.45,-31.02 -23.51,-14.01 -46.89,-31.57 -63.98,-48.8 -17.07,-17.26 -27.85,-34.19 -36.68,-50.58 -8.81,-16.39 -15.71,-32.22 -20.6,-47.06 -4.87,-14.84 -7.7,-28.69 -9.3,-44.47 -1.6,-15.81 -1.96,-33.56 -2.13,-46.51 -0.17,-12.97 -0.17,-21.16 0.02,-205.29z"/>
  <path class="fil2 str1" d="M4931.54 3903.09c-0.22,-184.14 -0.61,-544.25 -0.75,-723.33 -0.15,-179.07 0,-177.16 -1.53,-187.64 -1.52,-10.49 -4.7,-33.41 -8.67,-53.92 -3.99,-20.5 -8.78,-38.61 -19.12,-66.38 -10.36,-27.79 -26.29,-65.27 -45.56,-101.24 -19.27,-36 -41.91,-70.53 -67.43,-101.83 -25.54,-31.33 -53.98,-59.41 -85.92,-86.04 -31.93,-26.65 -67.39,-51.85 -98.12,-70.74 -30.74,-18.88 -56.77,-31.47 -85.48,-42.7 -28.71,-11.24 -60.11,-21.14 -89.94,-28.16 -29.85,-7.04 -58.12,-11.21 -86.23,-14.09 -28.11,-2.88 -56.02,-4.45 -91.34,-5.37 -35.32,-0.92 -78.05,-1.19 -114.42,-0.58 -36.36,0.58 -66.38,2.05 -97.95,5.08 -31.59,3.03 -64.76,7.6 -95.53,13.22 -30.77,5.59 -59.14,12.18 -86.37,20.02 -27.26,7.84 -53.36,16.92 -77.21,27.11 -23.84,10.17 -45.42,21.43 -63.02,32.49 -17.6,11.04 -31.18,21.84 -40.4,29.95 -9.22,8.11 -14.04,13.48 -17.09,17.02 -3.05,3.51 -4.31,5.16 -3.71,7.77 0.58,2.59 3.03,6.15 20.56,27.21 17.52,21.06 50.13,59.63 77.66,94.01 27.53,34.37 49.97,64.54 69.55,93.08 19.57,28.54 36.25,55.44 51.33,81.22 15.08,25.79 28.56,50.46 41.69,77.47 13.12,27.02 25.92,56.39 35.75,80.84 9.83,24.45 16.71,44.01 25.21,71.92 8.47,27.89 18.59,64.16 26.07,93.6 7.48,29.41 12.37,52 20.67,97.56 8.28,45.54 20,114.03 26.05,161.19 6.03,47.13 6.37,72.89 9.54,139.78 3.17,66.89 9.18,174.91 10.97,246.69 1.77,71.78 -0.63,107.32 -2.28,161.53 -1.67,54.2 -2.59,127.05 -4.19,191.2 -1.62,64.13 -3.92,119.55 -4.14,150.25 -0.24,30.67 1.6,36.58 4.1,40.57 2.47,4 5.56,6.08 15.1,8.38 9.54,2.27 25.52,4.77 114.63,5.47 89.12,0.7 251.39,-0.41 347.12,-1.86 95.72,-1.48 124.94,-3.32 145.01,-5.55 20.07,-2.25 30.99,-4.91 48.27,-11.47 17.29,-6.56 40.92,-17.02 64.45,-31.02 23.51,-14.01 46.89,-31.56 63.98,-48.8 17.07,-17.26 27.85,-34.19 36.68,-50.57 8.81,-16.39 15.71,-32.23 20.6,-47.07 4.87,-14.84 7.7,-28.69 9.3,-44.47 1.6,-15.81 1.96,-33.55 2.13,-46.51 0.17,-12.97 0.17,-21.16 -0.02,-205.29z"/>
  <path class="fil2 str1" d="M1203.49 4187.81c-1.26,-100.42 -3.7,-295.59 -3.22,-423.71 0.51,-128.14 4,-189.22 11.99,-257.58 8.01,-68.37 20.57,-143.98 37.11,-212.97 16.53,-69 37.06,-131.39 60.14,-186.75 23.09,-55.4 48.71,-103.81 72.55,-143.2 23.87,-39.42 45.95,-69.82 80.16,-108.75 34.23,-38.93 80.57,-86.4 140.68,-136.49 60.13,-50.12 134.02,-102.87 213.55,-145.65 79.53,-42.77 164.72,-75.58 241.97,-98.38 77.28,-22.81 146.61,-35.62 232.82,-42.83 86.21,-7.21 189.3,-8.81 283.3,-6.51 94.03,2.27 178.98,8.5 241.13,15.93 62.16,7.43 101.51,16.07 143.1,28.18 41.59,12.08 85.46,27.6 129.35,46.94 43.91,19.34 87.85,42.51 152.08,91.92 64.25,49.41 148.79,125.04 202.9,175.01 54.11,49.97 77.78,74.23 112.04,123.11 34.26,48.85 79.07,122.33 110.25,180.91 31.2,58.59 48.76,102.31 62.82,144.17 14.09,41.83 24.7,81.78 32.93,148.5 8.25,66.7 14.18,160.17 17.14,253.23 2.95,93.06 2.95,185.71 2.95,291.58 0,105.86 0,224.92 -0.44,309.78 -0.41,84.83 -1.28,135.42 -3.84,169.2 -2.55,33.74 -6.83,50.67 -16.56,74.46 -9.74,23.8 -24.96,54.5 -42.27,80.43 -17.29,25.9 -36.66,47.06 -65.85,66.04 -29.2,18.98 -68.22,35.78 -108.97,47.11 -40.72,11.33 -83.21,17.19 -138.82,21.38 -55.58,4.16 -124.33,6.68 -220.11,9.95 -95.77,3.24 -218.56,7.21 -412.98,6.95 -194.4,-0.29 -460.39,-4.82 -684.26,-7.94 -223.86,-3.15 -405.55,-4.89 -518.17,-9.81 -112.6,-4.91 -156.08,-13.05 -195.69,-36.92 -39.6,-23.87 -75.29,-63.52 -99.67,-95.65 -24.38,-32.15 -37.4,-56.79 -46.74,-82.87 -9.33,-26.09 -14.92,-53.62 -17.97,-83.35 -3.02,-29.75 -3.48,-61.71 -3.75,-80.52 -0.27,-18.81 -0.36,-24.5 -1.65,-124.9z"/>
 </g>
</svg>
