<?xml version="1.0" encoding="UTF-8"?>
<!DOCTYPE svg PUBLIC "-//W3C//DTD SVG 1.1//EN" "http://www.w3.org/Graphics/SVG/1.1/DTD/svg11.dtd">
<!-- Creator: CorelDRAW -->
<svg xmlns="http://www.w3.org/2000/svg" xml:space="preserve" width="50mm" height="50mm" version="1.1" style="shape-rendering:geometricPrecision; text-rendering:geometricPrecision; image-rendering:optimizeQuality; fill-rule:evenodd; clip-rule:evenodd"
viewBox="0 0 5000 5000"
 xmlns:xlink="http://www.w3.org/1999/xlink"
 xmlns:xodm="http://www.corel.com/coreldraw/odm/2003">
 <defs>
  <style type="text/css">
   <![CDATA[
    .str1 {stroke:#373435;stroke-width:20;stroke-miterlimit:22.9256}
    .str0 {stroke:#84716B;stroke-width:20;stroke-miterlimit:22.9256}
    .fil5 {fill:#FFF212}
    .fil6 {fill:#ED3237}
    .fil2 {fill:#CC9F3C}
    .fil0 {fill:#342B2C}
    .fil4 {fill:#6DBE4F}
    .fil3 {fill:black}
    .fil1 {fill:#0F1533}
   ]]>
  </style>
 </defs>
 <g id="Camada_x0020_1">
  <metadata id="CorelCorpID_0Corel-Layer"/>
  <path class="fil0 str0" d="M311.43 4719.28c-4.22,-50.15 -2.33,-152.31 -0.94,-233.85 1.42,-81.56 2.35,-142.47 3.74,-172.92 1.42,-30.48 3.31,-30.48 142.49,-30.48 139.19,0 415.67,0 1104.55,3.29 688.9,3.28 1790.17,9.84 2373.15,12.19 582.98,2.35 647.67,0.46 684.21,5.15 36.56,4.68 44.99,15.94 48.28,60.93 3.28,44.98 1.39,123.71 0.91,190.73 -0.46,67.01 0.48,122.31 -18.74,156.05 -19.21,33.74 -58.56,45.93 -119.49,48.28 -60.91,2.33 -143.4,-5.17 -196.35,-10.78 -52.96,-5.63 -76.39,-9.39 -89.04,-33.76 -12.65,-24.37 -14.54,-69.34 -30.95,-91.36 -16.39,-22.05 -47.31,-21.11 -624.68,-24.39 -577.34,-3.28 -1701.11,-10.76 -2263.48,-9.35 -562.35,1.39 -563.3,11.69 -562.37,32.32 0.94,20.61 3.76,51.54 4.22,76.39 0.48,24.82 -1.39,43.58 -53.41,54.36 -52.02,10.77 -154.19,13.59 -222.62,13.59 -68.4,0 -103.1,-2.82 -123.25,-3.28 -20.15,-0.48 -25.76,1.41 -33.73,3.28 -7.96,1.87 -18.28,3.76 -22.5,-46.39z"/>
  <rect class="fil1 str1" x="517.75" y="3001.48" width="3933.39" height="1297.6"/>
  <rect class="fil1 str1" x="1188.02" y="1697.36" width="2606.52" height="1258.52"/>
  <path class="fil2" d="M684.55 4532.84l0 72.45 -289.81 0 0 -289.81 4202.25 0 0 289.81 -289.81 0c0,-59.55 13.69,-144.9 -72.45,-144.9l-3477.72 0c-43.81,0 -72.46,28.64 -72.46,72.45zm2535.85 -1521.51l362.26 0 0 362.27c0,43.81 28.64,72.45 72.45,72.45l289.81 0c43.81,0 72.45,-28.64 72.45,-72.45l0 -362.27 362.27 0 0 1159.25 -1159.24 0 0 -1159.25zm-1304.15 0l362.26 0 0 362.27c0,43.81 28.65,72.45 72.45,72.45l289.81 0c43.81,0 72.46,-28.64 72.46,-72.45l0 -362.27 362.26 0 0 1159.25 -1159.24 0 0 -1159.25zm-1304.15 0l362.27 0 0 362.27c0,43.81 28.64,72.45 72.45,72.45l289.81 0c43.81,0 72.45,-28.64 72.45,-72.45l0 -362.27 362.26 0 0 1159.25 -1159.24 0 0 -1159.25zm3115.46 0l144.91 0 0 289.81 -144.91 0 0 -289.81zm-1304.14 0l144.9 0 0 289.81 -144.9 0 0 -289.81zm-1304.15 0l144.91 0 0 289.81 -144.91 0 0 -289.81zm1449.05 -1304.14l362.26 0 0 362.26c0,43.81 28.65,72.45 72.46,72.45l289.81 0c43.81,0 72.45,-28.64 72.45,-72.45l0 -362.26 362.26 0 0 1159.24 -1159.24 0 0 -1159.24zm-1304.14 0l362.26 0 0 362.26c0,43.81 28.64,72.45 72.45,72.45l289.81 0c43.81,0 72.45,-28.64 72.45,-72.45l0 -362.26 362.27 0 0 1159.24 -1159.24 0 0 -1159.24zm1811.31 0l144.91 0 0 289.81 -144.91 0 0 -289.81zm-1304.15 0l144.91 0 0 289.81 -144.91 0 0 -289.81zm1304.15 -144.91l-1159.24 0 -144.91 0 -511.09 0 -68.53 0c-43.81,0 -72.45,28.65 -72.45,72.46l0 1231.69 -579.62 0c-43.81,0 -72.45,28.64 -72.45,72.45l0 1231.7c-269.16,0 -217.36,-59.61 -217.36,507.16 0,43.81 28.64,72.46 72.45,72.46l434.72 0c86.13,0 72.45,-85.36 72.45,-144.91l3332.82 0c0,186.28 -15.04,144.91 507.17,144.91 43.81,0 72.45,-28.65 72.45,-72.46l0 -434.71c0,-94.72 -108.52,-72.45 -217.36,-72.45l0 -1231.7c0,-43.81 -28.64,-72.45 -72.45,-72.45l-579.62 0 0 -1231.69c0,-43.81 -28.65,-72.46 -72.45,-72.46l-218.24 0 -361.38 0 -144.91 0z"/>
  <path class="fil3" d="M678.83 4598.27l-274.75 -0.8 0.82 -274.08 4187.37 -3.24 -0.54 278.38 -280.23 -1.61c0,-59.55 12.13,-147.84 -77.62,-148.07l-3494.74 5.72c-70.81,0 -56.95,91.62 -60.31,143.7zm-352.7 -436.14l4294.22 -3.44c14.26,0.59 80.42,-0.97 108.14,11.81 19.76,9.12 13.5,23.17 16.8,33.43 0.09,0.3 -2.08,372.43 -2.82,464.41 -0.06,8.58 -1.79,24.31 -1.82,27.76 -0.03,32.49 -18.16,75.18 -71.2,77.42 -522.21,0 -507.18,29.18 -507.18,-157.1l-3332.8 -8.15c0,59.55 14.53,166.72 -71.6,166.72l-434.73 -0.86c-33.59,0 -71.05,-52.75 -73.21,-89.68l-4.83 -394.74c9.78,-86.77 1.59,-125.43 81.03,-127.58z"/>
  <rect class="fil1" transform="matrix(2.02515 0.462938 -0.462938 2.02515 3531.26 91.9878)" width="628" height="610.21"/>
  <polygon class="fil4" points="4070.26,1345.49 4352.78,1410.07 4385.07,1268.81 4102.55,1204.23 "/>
  <path class="fil2" d="M4890.94 364.79l-312.76 1368.21 -137.24 -31.38 -141.27 -32.29 -353.15 -80.73 -141.25 -32.29 -353.16 -80.73 -141.26 -32.29 -141.27 -32.29 32.3 -141.27 274.47 -1200.71c9.77,-42.71 44.08,-64.25 86.79,-54.48l1271.34 290.62c33.19,7.58 53.59,29.98 56.46,59.63zm-1289.47 -192.85l353.15 80.73 -80.72 353.15c-9.77,42.7 11.78,77.02 54.48,86.78l282.52 64.58c42.71,9.76 77.02,-11.78 86.78,-54.49l80.73 -353.15 353.15 80.73 -258.33 1130.09 -1130.09 -258.33 258.33 -1130.09zm494.42 113.02l141.26 32.29 -64.59 282.52 -141.25 -32.29 64.58 -282.52z"/>
  <polygon class="fil5" points="1989.58,2784.14 2279.39,2784.14 2279.39,2639.24 1989.58,2639.24 "/>
  <polygon class="fil5" points="3293.73,2784.14 3583.54,2784.14 3583.54,2639.24 3293.73,2639.24 "/>
  <polygon class="fil6" points="1337.51,4088.29 1627.32,4088.29 1627.32,3943.39 1337.51,3943.39 "/>
  <polygon class="fil6" points="2641.65,4088.29 2931.46,4088.29 2931.46,3943.39 2641.65,3943.39 "/>
  <polygon class="fil6" points="3945.8,4088.29 4235.61,4088.29 4235.61,3943.39 3945.8,3943.39 "/>
 </g>
</svg>
