<?xml version="1.0" encoding="UTF-8"?>
<!DOCTYPE svg PUBLIC "-//W3C//DTD SVG 1.1//EN" "http://www.w3.org/Graphics/SVG/1.1/DTD/svg11.dtd">
<!-- Creator: CorelDRAW -->
<svg xmlns="http://www.w3.org/2000/svg" xml:space="preserve" width="50mm" height="50mm" version="1.1" style="shape-rendering:geometricPrecision; text-rendering:geometricPrecision; image-rendering:optimizeQuality; fill-rule:evenodd; clip-rule:evenodd"
viewBox="0 0 5000 5000"
 xmlns:xlink="http://www.w3.org/1999/xlink"
 xmlns:xodm="http://www.corel.com/coreldraw/odm/2003">
 <defs>
  <style type="text/css">
   <![CDATA[
    .str0 {stroke:black;stroke-width:20;stroke-miterlimit:22.9256}
    .str2 {stroke:#003435;stroke-width:20;stroke-miterlimit:22.9256}
    .str1 {stroke:#38B6FF;stroke-width:20;stroke-miterlimit:22.9256}
    .fil6 {fill:#FFF212}
    .fil5 {fill:#F58634}
    .fil4 {fill:#00A859}
    .fil0 {fill:black}
    .fil2 {fill:#003435}
    .fil3 {fill:#37E1FF}
    .fil1 {fill:#38B6FF}
    .fil7 {fill:black;fill-rule:nonzero}
   ]]>
  </style>
 </defs>
 <g id="Camada_x0020_1">
  <metadata id="CorelCorpID_0Corel-Layer"/>
  <path class="fil0 str0" d="M278.96 2236.33c118.62,-236.76 356.73,-709.49 481.33,-954.03 124.6,-244.54 135.71,-260.9 151.65,-277.7 15.94,-16.81 36.72,-34.08 63.58,-49.26 26.85,-15.19 59.79,-28.3 85.37,-35.65 25.57,-7.36 43.8,-8.96 501.76,-10.06 457.95,-1.11 1355.63,-1.72 1815.47,-2.02 459.84,-0.31 481.83,-0.31 503.72,2.34 21.9,2.64 43.69,7.93 59.98,13.9 16.3,5.96 27.08,12.59 39.97,19.92 12.89,7.32 27.88,15.32 43.33,25.54 15.45,10.22 31.37,22.66 44.93,34.48 13.56,11.82 24.78,23.03 33.94,35.2 9.16,12.17 16.27,25.29 132.05,253.57 115.79,228.28 340.24,671.72 453.76,898.93 113.53,227.21 116.11,238.2 119.79,247.39 3.68,9.18 8.45,16.55 -747.15,28.03 -755.59,11.47 -2271.55,27.04 -3035.89,34.19 -764.34,7.15 -777.07,5.87 -790.9,2.76 -13.83,-3.12 -28.78,-8.09 -40,-12.11 -11.22,-4.03 -18.73,-7.11 -23.22,-9.34 -4.49,-2.24 -5.97,-3.62 -7.2,-4.77 -1.24,-1.15 -2.22,-2.06 -3.14,-2.91 -0.92,-0.86 -1.76,-1.64 116.87,-238.4z"/>
  <rect class="fil0 str0" x="116.85" y="2293.31" width="4754.01" height="2100.55" rx="318.5" ry="344.44"/>
  <rect class="fil1 str1" x="301.62" y="2525.92" width="4344.92" height="1673.97" rx="88.35" ry="83.31"/>
  <path class="fil0 str0" d="M1488.03 2460.38c12.64,-29.58 41.07,-82.51 56.21,-108.97 15.14,-26.46 16.97,-26.46 22.94,-23.93 5.97,2.52 16.06,7.57 25.9,13.69 9.83,6.12 19.39,13.32 28.29,22.39 8.89,9.07 17.1,20.03 23.19,28.39 6.09,8.36 10.05,14.12 17.17,27.96 7.11,13.84 17.38,35.75 41.35,89.04 23.96,53.29 61.61,137.95 80.99,180.85 19.38,42.9 20.47,44.03 23.37,44.63 2.9,0.6 7.61,0.68 220.81,0.27 213.2,-0.4 634.91,-1.28 846.77,-2.23 211.86,-0.94 213.88,-1.95 215.7,-3.27 1.82,-1.31 3.43,-2.92 24.19,-49.88 20.76,-46.96 60.65,-139.27 84.67,-192.84 24.01,-53.57 32.14,-68.42 39.57,-80.08 7.42,-11.66 14.13,-20.15 22.26,-29.62 8.12,-9.47 17.66,-19.93 29.67,-29.37 12.01,-9.44 26.51,-17.85 38.67,-22.99 12.15,-5.15 21.96,-7.02 35.99,-7.48 14.02,-0.47 32.26,0.46 42.08,28.51 9.81,28.05 11.21,83.22 10.22,114.9 -0.99,31.69 -4.36,39.91 -30.91,97.99 -26.56,58.09 -76.28,166.04 -106.49,226.6 -30.22,60.56 -40.91,73.72 -53.8,86.09 -12.9,12.37 -27.98,23.94 -43.37,33.31 -15.39,9.38 -31.07,16.54 -46.15,21.14 -15.08,4.6 -29.56,6.63 -43.01,7.64 -13.46,1.02 -25.9,1.02 -239.98,1.42 -214.08,0.41 -629.8,1.23 -842.7,1.32 -212.9,0.1 -222.99,-0.51 -232.35,-1.44 -9.36,-0.92 -18.01,-2.16 -29.12,-5.66 -11.11,-3.49 -24.69,-9.26 -36.31,-15.54 -11.63,-6.27 -21.3,-13.06 -31.17,-21.4 -9.88,-8.33 -19.97,-18.2 -29.53,-30.65 -9.57,-12.45 -18.63,-27.47 -30.25,-50.21 -11.63,-22.73 -25.82,-53.19 -47.32,-99.59 -21.51,-46.39 -50.31,-108.74 -65.98,-143.38 -15.67,-34.63 -18.21,-41.55 -20.67,-47.86 -2.46,-6.31 -4.84,-12.01 -7.61,-17.98 -2.78,-5.96 -5.93,-12.19 6.71,-41.77z"/>
  <rect class="fil2 str2" x="1997.22" y="3448.47" width="965.65" height="232.13"/>
  <path class="fil0 str0" d="M1997.23 3448.48l965.65 0 0 232.13 -965.65 0 0 -232.13zm-185.71 -46.43c0,315.14 -51.74,473.55 194.99,473.55l947.09 0c101.13,0 194.99,-35.95 194.99,-148.57l0 -324.98c0,-98.61 -77.22,-148.56 -176.42,-148.56l-984.23 0c-99.2,0 -176.42,49.95 -176.42,148.56z"/>
  <path class="fil3 str2" d="M497.46 2223.76c35.99,-69.57 108.15,-208.7 205.19,-398.03 97.03,-189.33 218.93,-428.86 286.3,-555.04 67.37,-126.18 80.2,-139.02 96.24,-147.04 16.04,-8.02 35.29,-11.22 68.98,-12.82 33.68,-1.61 81.8,-1.61 511.14,-1.61 429.33,0 1239.88,0 1675.09,1.07 435.22,1.07 495.11,3.2 532,8.55 36.89,5.35 50.8,13.9 114.51,131.02 63.71,117.12 177.22,342.81 261.65,509.76 84.43,166.95 139.77,275.16 177.79,350.01 38.03,74.84 58.74,116.32 70.7,141.37 11.97,25.05 15.18,33.69 14.77,38.01 -0.4,4.31 -4.43,4.31 -671.91,4.31 -667.47,0 -1998.39,0 -2667.95,0 -669.56,0 -677.76,0 -684.24,0 -6.48,0 -11.24,0 -15.19,0 -3.96,0 -7.11,0 -8.76,0 -1.66,0 -1.82,0 -1.98,0 -0.17,0 -0.33,0 35.67,-69.56z"/>
  <path class="fil2 str2" d="M1605.89 2300.76c8.64,2.79 25.66,2.79 45.04,34.6 19.37,31.8 41.12,95.42 55.53,133.58 14.4,38.16 21.46,50.87 36.99,83.7 15.52,32.84 39.49,85.79 52.95,117.92 13.46,32.13 16.41,43.42 21.82,46.93 5.41,3.51 13.28,-0.78 70.81,-0.95 57.52,-0.16 164.7,3.79 352.08,6.47 187.38,2.69 454.97,4.1 601.31,4.87 146.35,0.78 171.45,0.92 191.64,1.02 20.2,0.11 35.49,0.19 44.11,0.23 8.63,0.05 10.59,0.06 24.55,-32.51 13.97,-32.56 39.94,-97.71 74.19,-175.99 34.25,-78.28 76.77,-169.71 98.79,-233.12 22.03,-63.41 23.56,-98.8 -2.58,-127.18 -26.13,-28.38 -79.92,-49.73 -165.36,-60.8 -85.43,-11.08 -202.5,-11.88 -443.77,-8.71 -241.27,3.16 -606.73,10.28 -800.93,17.01 -194.2,6.72 -217.14,13.05 -232.56,21.75 -15.43,8.7 -23.34,19.78 -28.7,38.9 -5.37,19.12 -8.19,46.28 -9.4,65.77 -1.22,19.48 -0.82,31.28 0.16,38.76 0.98,7.47 2.55,10.61 3.48,14.98 0.92,4.37 1.2,9.97 9.85,12.77z"/>
  <rect class="fil0 str0" x="1502.53" y="618.37" width="2144.67" height="1354.59" rx="20.74" ry="42.07"/>
  <rect class="fil4 str0" x="1618.67" y="731.5" width="1910.19" height="1117.57" rx="18.47" ry="34.71"/>
  <rect class="fil0 str0" x="1259.52" y="1110.66" width="2600.23" height="1642.32" rx="25.14" ry="51"/>
  <rect class="fil5 str0" x="1400.33" y="1247.82" width="2315.94" height="1354.96" rx="22.39" ry="42.08"/>
  <rect class="fil0 str0" x="887.11" y="1629.96" width="3269.25" height="2064.88" rx="31.61" ry="64.13"/>
  <rect class="fil6 str0" x="1064.16" y="1802.41" width="2911.82" height="1703.58" rx="28.15" ry="52.91"/>
  <path class="fil1 str1" d="M383.23 2528.13l1081.99 0c2.92,6.84 7.4,17.03 14.82,33.44 15.67,34.64 44.47,96.99 65.98,143.38 21.5,46.4 35.69,76.86 47.32,99.59 11.62,22.74 20.68,37.76 30.25,50.21 9.56,12.45 19.65,22.32 29.53,30.65 9.87,8.34 19.54,15.13 31.17,21.4 11.62,6.28 25.2,12.05 36.31,15.54 11.11,3.5 19.76,4.74 29.12,5.66 9.36,0.93 19.45,1.54 232.35,1.44 212.9,-0.09 628.62,-0.91 842.7,-1.32 214.08,-0.4 226.52,-0.4 239.98,-1.42 13.45,-1.01 27.93,-3.04 43.01,-7.64 15.08,-4.6 30.76,-11.76 46.15,-21.14 15.39,-9.37 30.47,-20.94 43.37,-33.31 12.89,-12.37 23.58,-25.53 53.8,-86.09 30.21,-60.56 79.93,-168.51 106.49,-226.6 4.14,-9.05 7.71,-16.89 10.8,-23.79l1193.16 0c45.83,0 83.31,37.48 83.31,83.31l0 1507.35c0,45.83 -37.48,83.31 -83.31,83.31l-4178.3 0c-45.83,0 -83.31,-37.48 -83.31,-83.31l0 -1507.35c0,-45.83 37.48,-83.31 83.31,-83.31z"/>
  <path class="fil0 str0" d="M1470.47 2511.19c12.64,-29.58 41.07,-82.51 56.21,-108.97 15.14,-26.46 16.97,-26.46 22.94,-23.93 5.97,2.52 16.06,7.57 25.9,13.69 9.83,6.12 19.39,13.32 28.29,22.39 8.89,9.07 17.1,20.03 23.19,28.39 6.09,8.36 10.05,14.12 17.17,27.96 7.11,13.84 17.38,35.75 41.35,89.04 23.96,53.29 61.61,137.95 80.99,180.85 19.38,42.9 20.47,44.03 23.37,44.63 2.9,0.6 7.61,0.68 220.81,0.27 213.2,-0.4 634.91,-1.28 846.77,-2.23 211.86,-0.94 213.88,-1.95 215.7,-3.27 1.82,-1.31 3.43,-2.92 24.19,-49.88 20.76,-46.96 60.65,-139.27 84.67,-192.84 24.01,-53.57 32.14,-68.42 39.57,-80.08 7.42,-11.66 14.13,-20.15 22.26,-29.62 8.12,-9.47 17.66,-19.93 29.67,-29.37 12.01,-9.44 26.51,-17.85 38.67,-22.99 12.15,-5.15 21.96,-7.02 35.99,-7.48 14.02,-0.47 32.26,0.46 42.08,28.51 9.81,28.05 11.21,83.22 10.22,114.9 -0.99,31.69 -4.36,39.91 -30.91,97.99 -26.56,58.09 -76.28,166.04 -106.49,226.6 -30.22,60.56 -40.91,73.72 -53.8,86.09 -12.9,12.37 -27.98,23.94 -43.37,33.31 -15.39,9.38 -31.07,16.54 -46.15,21.14 -15.08,4.6 -29.56,6.63 -43.01,7.64 -13.46,1.02 -25.9,1.02 -239.98,1.42 -214.08,0.41 -629.8,1.23 -842.7,1.32 -212.9,0.1 -222.99,-0.51 -232.35,-1.44 -9.36,-0.92 -18.01,-2.16 -29.12,-5.66 -11.11,-3.49 -24.69,-9.26 -36.31,-15.54 -11.63,-6.27 -21.3,-13.06 -31.17,-21.4 -9.88,-8.33 -19.97,-18.2 -29.53,-30.65 -9.57,-12.45 -18.63,-27.47 -30.25,-50.21 -11.63,-22.73 -25.82,-53.19 -47.32,-99.59 -21.51,-46.39 -50.31,-108.74 -65.98,-143.38 -15.67,-34.63 -18.21,-41.55 -20.67,-47.86 -2.46,-6.31 -4.84,-12.01 -7.61,-17.98 -2.78,-5.96 -5.93,-12.19 6.71,-41.77z"/>
  <rect class="fil0" x="730.5" y="2308.33" width="715.74" height="209.13" rx="1.78" ry="7.39"/>
  <rect class="fil0" x="3372.41" y="2311.85" width="777.98" height="209.13"/>
  <path class="fil0" d="M1453.1 2546.4c-5.18,-8.79 -11.88,-25.42 -19.18,-55.95 -7.3,-30.54 -15.22,-74.97 -14.91,-107.64 0.3,-32.67 8.82,-53.57 14.73,-64.02 5.91,-10.46 9.2,-10.46 13.16,-10.05 3.96,0.41 8.57,1.24 24.91,8.42 16.33,7.18 44.38,20.71 63.86,31.57 19.47,10.85 30.37,19.02 41.5,28.59 11.13,9.56 22.5,20.51 30.84,31.65 8.34,11.14 13.67,22.47 2.92,42.66 -10.76,20.18 -37.59,49.23 -62.64,67.79 -25.06,18.56 -48.33,26.63 -61.81,31.16 -13.49,4.52 -17.17,5.5 -20.85,5.52 -3.68,0.02 -7.35,-0.91 -12.53,-9.7z"/>
  <path class="fil0" d="M3245.87 2417.14c10.19,-17.23 31.64,-39.76 50.43,-57.02 18.79,-17.27 34.93,-29.27 46.06,-35.58 11.13,-6.32 17.25,-6.96 21.97,-8.13 4.72,-1.17 8.02,-2.86 15.31,-2.83 7.29,0.03 18.56,1.8 29.28,12.43 10.73,10.63 20.92,30.13 29.58,58.52 8.67,28.38 15.82,65.65 11.59,91.07 -4.22,25.41 -19.82,38.97 -32.07,56.52 -12.24,17.55 -21.12,39.09 -32.07,50.95 -10.94,11.85 -23.94,14.01 -39,7.95 -15.06,-6.07 -32.17,-20.37 -49.83,-38.78 -17.66,-18.42 -35.86,-40.96 -45.83,-57.31 -9.96,-16.36 -11.7,-26.55 -13.11,-37.6 -1.4,-11.05 -2.49,-22.96 7.69,-40.19z"/>
  <path class="fil7" d="M1322.1 3314.16l0 401.96 78.74 0 0 100.33 -209.55 0 0 -502.29 130.81 0zm299.93 0l0 502.29 -125.1 0 0 -269.66c0,-38.95 -0.95,-62.45 -2.75,-70.28 -1.91,-7.83 -6.99,-13.86 -15.35,-17.88 -8.36,-4.02 -26.98,-6.04 -55.88,-6.04l-12.38 0 0 -58.31c60.54,-12.91 106.47,-39.69 137.8,-80.12l73.66 0zm350.41 294.43c0,50.49 -1.16,86.15 -3.6,107.11 -2.33,21.06 -9.73,40.21 -22.22,57.57 -12.49,17.36 -29.42,30.69 -50.7,40 -21.27,9.32 -46.03,13.98 -74.29,13.98 -26.88,0 -50.91,-4.45 -72.29,-13.23 -21.37,-8.79 -38.63,-21.91 -51.54,-39.48 -13.01,-17.57 -20.74,-36.72 -23.28,-57.36 -2.43,-20.75 -3.7,-56.94 -3.7,-108.59l0 -85.93c0,-50.49 1.16,-86.15 3.59,-107.11 2.33,-21.06 9.74,-40.21 22.23,-57.57 12.49,-17.36 29.42,-30.69 50.69,-40.01 21.28,-9.31 46.04,-13.97 74.3,-13.97 26.88,0 50.9,4.45 72.28,13.23 21.38,8.79 38.63,21.91 51.54,39.48 13.02,17.57 20.75,36.72 23.29,57.36 2.43,20.74 3.7,56.94 3.7,108.59l0 85.93zm-130.81 -164.99c0,-23.28 -1.27,-38.21 -3.81,-44.77 -2.54,-6.45 -7.73,-9.74 -15.56,-9.74 -6.66,0 -11.74,2.65 -15.34,7.94 -3.5,5.19 -5.29,20.75 -5.29,46.57l0 234.42c0,29.1 1.16,47.1 3.49,53.87 2.33,6.88 7.72,10.26 16.19,10.26 8.68,0 14.29,-3.91 16.72,-11.74 2.44,-7.83 3.6,-26.57 3.6,-56.09l0 -230.72z"/>
  <path class="fil7" d="M2534.15 3532.17l-130.81 0 0 -87.21c0,-25.4 -1.38,-41.17 -4.13,-47.52 -2.75,-6.24 -8.89,-9.42 -18.31,-9.42 -10.58,0 -17.36,3.81 -20.22,11.43 -2.85,7.73 -4.33,24.24 -4.33,49.64l0 233.05c0,24.44 1.48,40.32 4.33,47.83 2.86,7.41 9.32,11.11 19.27,11.11 9.63,0 15.98,-3.7 18.94,-11.21 2.96,-7.41 4.45,-24.98 4.45,-52.6l0 -63.19 130.81 0 0 19.58c0,52.07 -3.71,89.01 -11.01,110.71 -7.3,21.8 -23.6,40.85 -48.68,57.25 -25.19,16.41 -56.1,24.56 -92.93,24.56 -38.2,0 -69.74,-6.88 -94.61,-20.75 -24.77,-13.86 -41.28,-33.02 -49.32,-57.57 -8.04,-24.56 -12.06,-61.39 -12.06,-110.6l0 -146.68c0,-36.2 1.27,-63.29 3.7,-81.39 2.54,-18.1 9.84,-35.56 22.22,-52.28 12.28,-16.72 29.32,-29.95 51.12,-39.58 21.8,-9.63 46.89,-14.4 75.25,-14.4 38.42,0 70.17,7.41 95.25,22.34 24.98,14.81 41.38,33.33 49.32,55.56 7.83,22.22 11.75,56.72 11.75,103.61l0 47.73zm177.59 -219.08l0 401.96 78.74 0 0 100.33 -209.55 0 0 -502.29 130.81 0zm110.7 0l217.8 0 0 100.33 -86.99 0 0 95.89 81.28 0 0 95.25 -81.28 0 0 110.49 95.88 0 0 100.33 -226.69 0 0 -502.29zm489.15 0l74.72 502.29 -133.45 0 -7.09 -90.17 -47.1 0 -7.09 90.17 -135.15 0 66.25 -502.29 188.91 0zm-69.32 323.22c-6.24,-56.94 -12.8,-127.42 -19.79,-211.56 -12.91,96.52 -21.06,167 -24.55,211.56l44.34 0zm457.94 -323.22l0 502.29 -114.3 0 -67.94 -228.39 0 228.39 -109.22 0 0 -502.29 109.22 0 73.02 226.17 0 -226.17 109.22 0z"/>
 </g>
</svg>
