<?xml version="1.0" encoding="UTF-8"?>
<!DOCTYPE svg PUBLIC "-//W3C//DTD SVG 1.1//EN" "http://www.w3.org/Graphics/SVG/1.1/DTD/svg11.dtd">
<!-- Creator: CorelDRAW -->
<svg xmlns="http://www.w3.org/2000/svg" xml:space="preserve" width="50mm" height="50mm" version="1.1" style="shape-rendering:geometricPrecision; text-rendering:geometricPrecision; image-rendering:optimizeQuality; fill-rule:evenodd; clip-rule:evenodd"
viewBox="0 0 5000 5000"
 xmlns:xlink="http://www.w3.org/1999/xlink"
 xmlns:xodm="http://www.corel.com/coreldraw/odm/2003">
 <defs>
  <style type="text/css">
   <![CDATA[
    .str1 {stroke:black;stroke-width:20;stroke-miterlimit:22.9256}
    .str2 {stroke:#003435;stroke-width:20;stroke-miterlimit:22.9256}
    .str0 {stroke:#CC9F3C;stroke-width:20;stroke-miterlimit:22.9256}
    .fil4 {fill:#FEFEFE}
    .fil6 {fill:#6DBE4F}
    .fil2 {fill:black}
    .fil5 {fill:black}
    .fil0 {fill:#0F1533}
    .fil1 {fill:#CC9F3C}
    .fil3 {fill:#CC9F3C;fill-rule:nonzero}
   ]]>
  </style>
 </defs>
 <g id="Camada_x0020_1">
  <metadata id="CorelCorpID_0Corel-Layer"/>
  <path class="fil0" d="M482.04 2940.83c-4.6,-256.57 13.88,-730.75 11.58,-988.19 -2.31,-257.44 -25.41,-298.14 -101.69,-348.3 -5.75,-3.78 -11.82,-7.62 -18.1,-11.55l0 -726.06c4.96,-8.11 9.8,-15.87 14.46,-23.23 77.9,-123.12 106.86,-135.19 287.91,-191.91 181.04,-56.73 514.16,-158.12 835.73,-249.59 321.57,-91.48 631.58,-173.05 817.45,-202.01 185.87,-28.97 247.6,-5.34 422.08,39.07 174.49,44.41 461.75,109.58 741.76,188.04 280.01,78.45 552.78,170.17 725.5,233.92 172.73,63.75 245.42,99.51 323.89,192.29 14.78,17.48 29.77,36.99 44.63,57.87l0 721.19c-20.72,24.31 -39.08,48.83 -52.19,73.47 -43.89,82.55 -28.7,166.5 -25.36,387.29 3.35,220.78 -5.16,578.4 -12.52,802.37 -7.35,223.98 -13.57,314.31 -278.15,446.84 -264.58,132.53 -787.52,307.25 -1095.05,409.99 -307.52,102.75 -399.62,133.52 -475.47,139.03 -75.84,5.52 -135.44,-14.21 -319.66,-75.23 -184.23,-61.01 -493.09,-163.29 -756.14,-243.41 -263.06,-80.11 -480.32,-138.04 -644.46,-183.91 -164.15,-45.86 -275.2,-79.66 -344.56,-116.05 -69.36,-36.38 -97.05,-75.35 -101.64,-331.93z"/>
  <path class="fil1" d="M1426.82 4590.74l0 -1962.21c0,-107.77 50.87,-200.04 142.87,-200.04l1828.86 0c92,0 142.87,92.27 142.87,200.04l0 1962.21c0,121.9 -68.59,190.5 -190.5,190.5l-1733.6 0c-121.91,0 -190.5,-68.6 -190.5,-190.5zm3160.42 -1392.51c-28.5,105.86 -107.87,151.03 -220.95,178.96l-662.94 184.81 0.34 1057.65c0.21,174.47 -141.11,323.52 -305.14,323.52l-1828.86 0c-162.99,0 -306.05,-145.18 -305.04,-333.16l0.24 -1048.01 -535.38 -150.44c-183.26,-49.94 -328.84,-69.43 -355.68,-248.02l0 -1608.98c83.17,33.49 187.72,54.08 276.03,79.22 80.39,22.9 1120.71,327.98 1215.12,327.98 82.74,0 145.57,-53.97 179.35,-106.41 37.95,-58.93 298.83,-489.58 306.44,-522.26 -83.74,-6.97 -1795.92,-512.78 -1866.96,-514.36l-109.98 191.76 0 -327.99c29.76,-44.14 54.8,-46.89 125.7,-67.14l1245.73 -354.51c146.86,-41.8 611.72,-194.62 757.91,-194.62 81.2,0 1374.7,380.05 1439.44,398.93l533.45 152.37c66.81,19.17 85.91,21.05 111.18,55.35l0 325.92 -34.34 -58.04c-18.13,-30.03 -60.48,-92.09 -68.47,-122.03 -67.02,1.49 -1792.33,508.16 -1866.96,514.36 3.12,6.96 3.36,14.09 10.02,28.08 6.71,14.06 4.04,7.25 14.21,23.89 10.49,17.15 15.79,25.93 25.2,41.49l260.76 434.58c121.07,179.99 307.33,70.79 497.47,22.43l893.25 -249.78c86.83,-24.71 187.08,-43.68 268.86,-75.62l0 1640.07zm-2017.39 -1598.43c5.93,6.83 3.11,2.11 13.07,15.49l39.95 64.83c19.07,31.78 31.58,52.96 49.96,83.41 107.04,177.33 194.25,369.69 439.96,369.69 58.35,0 115.89,-19.89 165.95,-34.08l983.3 -274.04c44.2,-12.85 125.41,-41.01 165.23,-44.32l0.26 1305.22c0.54,55.27 5.38,87.89 -34.76,108.11 -19.83,10 -90.24,27.09 -110.33,32.55l-457.26 123.79c-42.3,10.76 -78.07,26.93 -121.83,30.58 0,-241.31 -0.06,-482.62 0,-723.93 0.04,-139.92 -5.16,-210.53 -78.35,-283.6 -65.7,-65.63 -126.5,-116.46 -255.03,-116.46l-800.12 0 0 -657.24zm-1304.96 1781.23c-41.49,-3.46 -77.32,-18.93 -114.25,-28.63 -40.08,-10.52 -71.21,-20.05 -112.36,-30.52l-456.11 -124.94c-43.54,-18.29 -42.04,-43.77 -41.61,-101.26l0.41 -1314.9 1141.06 316.3c46.79,12.76 111.4,36.14 173.42,36.14 329.58,0 407.68,-377.81 542.95,-533.42l0 657.24 -800.13 0c-125.45,0 -185.52,47.7 -250.2,111.76 -74.39,73.64 -83.27,137.21 -83.18,278.78 0.14,244.48 0,488.97 0,733.45zm-495.32 -2667.08c164.22,-38.26 675.89,-191.79 853.16,-242.25 147.84,-42.08 282.09,-80.45 429.44,-123.02l431.95 -118.41c62.06,0 1480.25,429.09 1714.55,483.68l-1499.59 424.52c-261.05,74.32 -171.34,73.16 -421.14,0.74l-647.78 -180.92c-147.49,-42.62 -287.29,-80.07 -431.96,-120.51l-428.63 -123.83z"/>
  <path class="fil2" d="M2409.41 4371.65c0,51.07 25.23,85.74 85.77,85.74l921.99 0c118.87,0 136.58,-171.47 -32.17,-171.47l-836.22 0c-77.09,0 -139.37,17.81 -139.37,85.73z"/>
  <path class="fil2" d="M2409.41 3381.03c0,45.09 1.04,104.77 117.92,104.77l879.11 0c128.08,0 149.84,-171.45 -10.71,-171.45l-889.85 0c-44.19,0 -96.47,32.02 -96.47,66.68z"/>
  <path class="fil2" d="M2409.41 2904.76c0,75.32 57.99,95.25 150.09,95.25l804.05 0c72.2,0 122.45,-15.29 142.12,-65.18 19.52,-49.51 -21.6,-106.27 -88.5,-106.27l-921.99 0c-51.86,0 -85.77,30.12 -85.77,76.2z"/>
  <path class="fil2" d="M2409.41 3866.82c0,50.78 14.89,104.78 96.47,104.78l900.56 0c133.73,0 133.73,-171.47 0,-171.47l-900.56 0c-41.84,0 -96.47,36.35 -96.47,66.69z"/>
  <path class="fil2" d="M1942.56 3293.45c-24.56,-15.27 -47.61,-47.62 -82.03,-47.62 -85.19,0 -92.28,53.57 -92.28,104.78 0,19.43 91.28,142.87 174.31,142.87 62.63,0 227.75,-178.58 279.38,-226.21 28.69,-26.45 69.22,-50.34 69.22,-97.64 0,-42.48 -41.54,-85.74 -82.03,-85.74 -70.11,0 -107.62,57.12 -146.11,92.88 -40.32,37.46 -90.4,74.99 -120.46,116.68z"/>
  <path class="fil2" d="M1942.56 3779.25c-28.63,-17.81 -45.74,-47.23 -91.11,-45.12 -61.99,2.88 -83.2,43.54 -83.2,92.74 0,50.66 109.51,152.41 164.05,152.41 83.89,0 117.58,-66.38 207.63,-150.03 56.11,-52.12 151.23,-122.02 151.23,-173.84 0,-47.88 -44.58,-85.72 -92.26,-85.72 -47.49,0 -106.8,65.84 -135.88,92.87 -40.32,37.47 -90.4,74.98 -120.46,116.69z"/>
  <path class="fil2" d="M1932.3 2807.67c-10.81,-27.77 10.2,-7.4 -27.55,-31.57 -42.91,-27.46 -136.5,-38.41 -136.5,88.72 0,19.09 113.68,142.87 174.31,142.87 56.05,0 135.53,-92.57 192.24,-145.25 56.68,-52.68 156.36,-126.51 156.36,-178.6 0,-47.08 -41.6,-85.73 -92.26,-85.73 -78.94,0 -172.16,150.8 -266.6,209.56z"/>
  <path class="fil2" d="M1942.56 4265.04c-49.82,-31 -24.4,-38.11 -112.78,-38.11 -22.1,0 -129.34,58.48 -13.01,164.48 60.3,54.93 97.46,114.97 186.24,53.69l168.84 -157.55c9.1,-9.26 10.09,-10.88 19.38,-20.11l78.05 -70.35c46.52,-58.12 16.71,-124.71 -54.63,-135.4 -87.98,-13.19 -151.43,128.29 -272.09,203.35z"/>
  <polygon class="fil0" points="540.95,2175.24 2082.54,2175.24 2082.54,1263.6 540.95,1263.6 "/>
  <polygon class="fil0" points="2398.4,2211.52 1869.62,2211.52 1869.62,1340.82 2398.4,1340.82 "/>
  <polygon class="fil0" points="2569.85,2193.27 4427.29,2193.27 4427.29,1342.25 2569.85,1342.25 "/>
  <polygon class="fil1" points="4427.36,1606.74 4587.31,1606.74 4587.31,791.65 4427.36,791.65 "/>
  <polygon class="fil1" points="540.95,1622.35 373.83,1622.35 373.83,803.61 540.95,803.61 "/>
  <polygon class="fil1 str0" points="2569.85,1342.25 2397.4,1342.25 2397.4,191.16 2569.85,191.16 "/>
  <path class="fil3" d="M886.01 1464.77l-10.85 397.14 79.11 21.4 -2.71 99.13 -210.54 -56.97 13.56 -496.26 131.43 35.56zm301.35 81.55l-13.57 496.26 -125.69 -34.02 7.28 -266.42c1.06,-38.48 0.74,-61.95 -0.86,-70.18 -1.71,-8.25 -6.65,-15.59 -14.94,-21.84 -8.29,-6.24 -26.94,-13.3 -55.98,-21.16l-12.44 -3.36 1.58 -57.61c61.17,3.7 108.04,-10.27 140.61,-41.7l74.01 20.03zm344.11 386.17c-1.36,49.88 -3.49,84.8 -6.51,104.84 -2.91,20.17 -10.86,37.08 -23.88,50.84 -13.01,13.75 -30.38,22.32 -52.02,25.73 -21.62,3.43 -46.62,1.3 -75.02,-6.38 -27,-7.31 -51.03,-18.24 -72.27,-32.73 -21.23,-14.49 -38.22,-32.15 -50.72,-53.02 -12.59,-20.89 -19.84,-41.92 -21.84,-63 -1.88,-21.16 -2.18,-57.26 -0.78,-108.29l2.32 -84.9c1.36,-49.88 3.49,-84.8 6.5,-104.85 2.91,-20.17 10.87,-37.07 23.89,-50.83 13.02,-13.76 30.39,-22.32 52.01,-25.75 21.63,-3.41 46.63,-1.28 75.03,6.4 27,7.31 51.02,18.24 72.26,32.72 21.24,14.5 38.22,32.15 50.72,53.02 12.61,20.9 19.85,41.92 21.85,63.01 1.88,21.15 2.18,57.26 0.78,108.29l-2.32 84.9zm-126.97 -198.58c0.63,-23 -0.24,-38.09 -2.62,-45.27 -2.38,-7.06 -7.5,-11.72 -15.37,-13.85 -6.69,-1.81 -11.87,-0.57 -15.63,3.67 -3.65,4.18 -5.87,19.07 -6.57,44.58l-6.33 231.6c-0.79,28.75 -0.11,46.85 2.05,54.17 2.16,7.43 7.48,12.24 15.99,14.54 8.72,2.36 14.46,0.02 17.12,-7.05 2.66,-7.07 4.33,-25.27 5.13,-54.44l6.23 -227.95zm-370.51 759.91l-131.43 -35.56 2.35 -86.16c0.69,-25.1 -0.27,-41.05 -2.86,-48.08 -2.6,-6.91 -8.68,-11.72 -18.14,-14.28 -10.63,-2.88 -17.55,-0.96 -20.63,5.79 -3.07,6.87 -5,22.78 -5.69,47.87l-6.29 230.25c-0.66,24.15 0.39,40.24 3.05,48.43 2.68,8.1 9.07,13.51 19.07,16.22 9.67,2.62 16.15,0.69 19.33,-5.93 3.17,-6.51 5.14,-23.47 5.89,-50.75l1.71 -62.44 131.42 35.57 -0.52 19.34c-1.41,51.45 -6.14,86.94 -14.06,106.39 -7.92,19.55 -24.81,33.94 -50.45,43.33 -25.75,9.36 -57.03,9.01 -94.04,-1 -38.38,-10.39 -69.88,-25.76 -94.49,-46.23 -24.51,-20.43 -40.59,-43.84 -48,-70.29 -7.41,-26.45 -10.46,-63.93 -9.13,-112.55l3.96 -144.91c0.98,-35.77 2.99,-62.19 5.92,-79.41 3.04,-17.19 10.84,-32.46 23.73,-45.61 12.79,-13.18 30.27,-21.62 52.43,-25.21 22.17,-3.58 47.5,-1.47 76,6.24 38.6,10.44 70.3,26.4 95.1,47.96 24.69,21.43 40.67,44.19 48.05,68.31 7.27,24.08 10.27,59.23 9.01,105.56l-1.29 47.15zm184.34 -168.16l-10.85 397.13 79.11 21.41 -2.71 99.12 -210.54 -56.97 13.56 -496.26 131.43 35.57zm111.23 30.1l218.83 59.21 -2.71 99.13 -87.41 -23.65 -2.59 94.74 81.67 22.09 -2.57 94.11 -81.67 -22.1 -2.98 109.16 96.33 26.07 -2.71 99.13 -227.76 -61.64 13.57 -496.25zm491.46 132.99l61.51 516.57 -134.09 -36.28 -4.68 -91.02 -47.33 -12.8 -9.55 87.16 -135.79 -36.75 80.13 -478.24 189.8 51.36zm-78.38 300.49c-4.73,-57.95 -9.42,-129.37 -14.17,-214.4 -15.58,91.85 -25.67,159.27 -30.38,202.35l44.55 12.05zm468.83 -194.83l-13.56 496.26 -114.84 -31.08 -62.09 -244.12 -6.17 225.65 -109.74 -29.7 13.57 -496.25 109.73 29.69 67.26 243.31 6.11 -223.45 109.73 29.69z"/>
  <polygon class="fil1 str0" points="4186.98,827.48 4218,654.99 711.76,624.21 680.74,796.7 "/>
  <path class="fil3" d="M2964.78 1689.72l-6.65 378.93 84.01 -27.93 -1.66 94.58 -223.59 74.33 8.32 -473.51 139.57 -46.4zm320.02 -106.38l-8.31 473.51 -133.48 44.37 4.47 -254.21c0.64,-36.72 0.01,-58.54 -1.77,-65.28 -1.91,-6.7 -7.24,-10.59 -16.09,-11.41 -8.85,-0.83 -28.69,3.88 -59.53,14.12l-13.2 4.4 0.96 -54.97c64.81,-33.64 114.26,-75.18 148.36,-124.41l78.59 -26.12zm369.03 153.26c-0.84,47.6 -2.67,81.63 -5.61,102.25 -2.84,20.68 -11.06,41.36 -24.67,62.16 -13.62,20.79 -31.9,39.36 -54.76,55.68 -22.85,16.33 -49.35,29.51 -79.5,39.54 -28.68,9.53 -54.25,13.86 -76.92,13.17 -22.65,-0.71 -40.85,-6.96 -54.33,-18.94 -13.6,-11.95 -21.53,-27.26 -23.9,-45.82 -2.24,-18.7 -3,-52.36 -2.15,-101.05l1.42 -81.01c0.85,-47.6 2.67,-81.62 5.6,-102.25 2.84,-20.67 11.07,-41.36 24.68,-62.15 13.62,-20.79 31.9,-39.36 54.75,-55.7 22.87,-16.33 49.36,-29.5 79.51,-39.52 28.68,-9.53 54.24,-13.86 76.91,-13.17 22.67,0.7 40.85,6.95 54.33,18.93 13.6,11.95 21.54,27.26 23.91,45.82 2.25,18.69 3,52.37 2.15,101.06l-1.42 81zm-136.85 -109.14c0.38,-21.94 -0.72,-35.57 -3.32,-40.85 -2.61,-5.18 -8.09,-6.44 -16.45,-3.66 -7.1,2.36 -12.57,6.66 -16.5,12.92 -3.82,6.14 -5.98,21.44 -6.41,45.79l-3.88 220.97c-0.49,27.44 0.45,44 2.83,49.56 2.37,5.65 8.07,6.92 17.11,3.92 9.26,-3.08 15.31,-8.75 18.03,-17 2.74,-8.24 4.28,-26.31 4.77,-54.15l3.82 -217.5zm-383.01 937.28l-139.57 46.41 1.44 -82.22c0.42,-23.94 -0.79,-38.32 -3.61,-43.33 -2.84,-4.91 -9.34,-5.73 -19.39,-2.39 -11.29,3.76 -18.59,9.75 -21.76,17.95 -3.17,8.3 -5.02,24.39 -5.44,48.33l-3.86 219.7c-0.4,23.04 0.91,37.48 3.83,43.55 2.93,5.97 9.76,7.18 20.37,3.64 10.28,-3.41 17.12,-9.15 20.4,-17.28 3.28,-8.04 5.16,-25.13 5.62,-51.17l1.04 -59.57 139.58 -46.39 -0.32 18.46c-0.86,49.08 -5.43,85.22 -13.58,108.26 -8.15,23.15 -25.86,46.88 -52.89,71.24 -27.16,24.4 -60.27,43.05 -99.57,56.12 -40.76,13.54 -74.29,18.24 -100.61,13.99 -26.19,-4.28 -43.5,-16.49 -51.67,-36.77 -8.16,-20.3 -11.85,-53.6 -11.03,-99.98l2.43 -138.29c0.6,-34.12 2.4,-60.11 5.29,-78.04 3.01,-17.95 11.09,-37.01 24.58,-57.16 13.38,-20.12 31.78,-38.63 55.2,-55.44 23.42,-16.81 50.27,-30.21 80.53,-40.27 41,-13.63 74.74,-17.9 101.26,-12.72 26.41,5.09 43.6,16.73 51.7,34.88 8,18.16 11.6,49.3 10.83,93.5l-0.8 44.99zm193.13 -269.51l-6.66 378.92 84.02 -27.92 -1.67 94.58 -223.58 74.32 8.31 -473.5 139.58 -46.4zm118.11 -39.27l232.4 -77.25 -1.66 94.57 -92.82 30.86 -1.59 90.4 86.73 -28.83 -1.57 89.79 -86.74 28.83 -1.82 104.16 102.3 -34.01 -1.66 94.59 -241.88 80.4 8.31 -473.51zm521.93 -173.5l71.41 447.01 -142.38 47.33 -6.08 -82.49 -50.26 16.71 -9.05 87.52 -144.21 47.93 79 -497.01 201.57 -67zm-79.31 329.29c-5.72,-51.47 -11.55,-115.58 -17.62,-192.42 -15.37,95.56 -25.23,164.9 -29.7,208.14l47.32 -15.72zm493.98 -467.13l-8.32 473.5 -121.96 40.55 -68.71 -191.21 -3.78 215.3 -116.54 38.75 8.31 -473.51 116.54 -38.75 74.17 187.31 3.75 -213.21 116.54 -38.73z"/>
  <path class="fil1" d="M1580.03 2257.53l1808.18 0c173.33,0 315.15,141.81 315.15,315.14l0 2058.23c0,173.33 -141.82,315.14 -315.15,315.14l-1808.18 0c-173.33,0 -315.15,-141.81 -315.15,-315.14l0 -2058.23c0,-173.33 141.82,-315.14 315.15,-315.14z"/>
  <path class="fil4" d="M1597.57 2428.49l1772.85 0c116.95,0 212.62,95.67 212.62,212.62l0 1928.99c0,116.95 -95.67,212.62 -212.62,212.62l-1772.85 0c-116.95,0 -212.63,-95.67 -212.63,-212.62l0 -1928.99c0,-116.95 95.68,-212.62 212.63,-212.62z"/>
  <path class="fil5 str1" d="M2308.33 2785.65l957.19 0c46.49,0 84.51,38.03 84.51,84.53 0,46.49 -38.02,84.52 -84.51,84.52l-957.19 0c-46.5,0 -84.53,-38.03 -84.53,-84.52 0,-46.5 38.03,-84.53 84.53,-84.53z"/>
  <path class="fil1 str0" d="M1781.82 3865.13c17.11,-13.46 49.06,-41.85 74.26,-64.61 25.2,-22.77 43.66,-39.9 58.87,-50.91 15.22,-11.01 27.2,-15.92 37.86,-17.82 10.67,-1.9 20.05,-0.8 28.79,1.94 8.75,2.74 16.9,7.12 23.06,11.82 6.16,4.71 10.39,9.74 13.59,15.6 3.2,5.86 5.37,12.55 6.14,19.7 0.76,7.15 0.04,14.76 -1.79,21.75 -1.85,7 -4.81,13.39 -12.01,22.14 -7.2,8.76 -18.6,19.88 -48.95,48.54 -30.38,28.68 -79.71,74.9 -108.94,101.98 -29.27,27.08 -38.44,35.02 -46.57,40.74 -8.13,5.72 -15.22,9.24 -22.52,11.69 -7.31,2.45 -14.88,3.85 -23.05,3.42 -8.17,-0.43 -16.99,-2.68 -27.93,-9.02 -10.96,-6.34 -24.04,-16.77 -36.83,-28.11 -12.79,-11.35 -25.31,-23.61 -34.67,-34.43 -9.36,-10.81 -15.53,-20.18 -19.53,-28.64 -3.97,-8.45 -5.77,-16 -6.12,-22.84 -0.36,-6.84 0.71,-12.99 3.52,-19.38 2.79,-6.39 7.33,-13.04 12.31,-18.34 5,-5.3 10.47,-9.26 15.18,-12.04 4.71,-2.77 8.67,-4.36 13.21,-5.91 4.55,-1.55 9.71,-3.05 15.69,-3.51 5.98,-0.46 12.81,0.12 18.64,1.28 5.84,1.18 10.66,2.92 16.63,6.11 5.98,3.18 13.1,7.81 18.23,11.27 5.09,3.47 8.19,5.79 10.89,7.68 2.67,1.89 4.93,3.36 22.04,-10.1z"/>
  <path class="fil1 str0" d="M1791.02 3355.43c17.12,-13.46 49.06,-41.85 74.26,-64.61 25.2,-22.77 43.66,-39.9 58.87,-50.91 15.21,-11.01 27.2,-15.92 37.86,-17.82 10.67,-1.9 20.04,-0.8 28.79,1.94 8.74,2.74 16.9,7.12 23.06,11.82 6.17,4.71 10.38,9.74 13.59,15.6 3.21,5.86 5.39,12.55 6.14,19.7 0.75,7.15 0.05,14.76 -1.79,21.75 -1.84,7 -4.8,13.39 -12.01,22.14 -7.2,8.76 -18.6,19.88 -48.95,48.54 -30.37,28.68 -79.71,74.9 -108.93,101.98 -29.27,27.08 -38.44,35.02 -46.57,40.74 -8.13,5.72 -15.21,9.24 -22.53,11.69 -7.31,2.45 -14.85,3.85 -23.05,3.42 -8.18,-0.43 -16.98,-2.68 -27.92,-9.02 -10.97,-6.34 -24.04,-16.77 -36.83,-28.11 -12.8,-11.35 -25.33,-23.61 -34.67,-34.43 -9.37,-10.81 -15.54,-20.18 -19.53,-28.64 -3.98,-8.45 -5.76,-16 -6.12,-22.84 -0.37,-6.84 0.69,-12.99 3.51,-19.38 2.8,-6.39 7.33,-13.04 12.31,-18.34 5,-5.3 10.47,-9.26 15.19,-12.04 4.71,-2.77 8.65,-4.36 13.21,-5.91 4.55,-1.55 9.72,-3.05 15.68,-3.51 5.99,-0.46 12.82,0.12 18.64,1.28 5.84,1.18 10.67,2.92 16.65,6.11 5.97,3.18 13.09,7.81 18.2,11.27 5.1,3.47 8.2,5.79 10.9,7.68 2.67,1.89 4.95,3.36 22.04,-10.1z"/>
  <path class="fil1 str0" d="M1810.14 2824.53c17.11,-13.46 49.06,-41.85 74.26,-64.61 25.2,-22.77 43.65,-39.9 58.87,-50.91 15.2,-11.01 27.19,-15.92 37.86,-17.82 10.68,-1.9 20.03,-0.8 28.78,1.94 8.76,2.74 16.9,7.12 23.07,11.82 6.16,4.71 10.38,9.74 13.58,15.6 3.21,5.86 5.4,12.55 6.15,19.7 0.74,7.15 0.06,14.76 -1.78,21.75 -1.85,7 -4.82,13.39 -12.02,22.14 -7.19,8.76 -18.59,19.88 -48.96,48.54 -30.36,28.68 -79.7,74.9 -108.94,101.98 -29.25,27.08 -38.42,35.02 -46.55,40.74 -8.13,5.72 -15.22,9.24 -22.53,11.69 -7.31,2.45 -14.87,3.85 -23.05,3.42 -8.18,-0.43 -17,-2.68 -27.94,-9.02 -10.95,-6.34 -24.03,-16.77 -36.82,-28.11 -12.8,-11.35 -25.32,-23.61 -34.67,-34.43 -9.36,-10.81 -15.52,-20.18 -19.52,-28.64 -3.98,-8.45 -5.77,-16 -6.13,-22.84 -0.37,-6.84 0.71,-12.99 3.5,-19.38 2.81,-6.39 7.34,-13.04 12.33,-18.34 4.99,-5.3 10.47,-9.26 15.17,-12.04 4.73,-2.77 8.67,-4.36 13.24,-5.91 4.54,-1.55 9.68,-3.05 15.67,-3.51 5.97,-0.46 12.82,0.12 18.65,1.28 5.83,1.18 10.66,2.92 16.62,6.11 5.98,3.18 13.1,7.81 18.22,11.27 5.11,3.47 8.21,5.79 10.9,7.68 2.68,1.89 4.94,3.36 22.04,-10.1z"/>
  <path class="fil5 str1" d="M2313.92 3301.91l957.19 0c46.49,0 84.52,38.03 84.52,84.53 0,46.49 -38.03,84.52 -84.52,84.52l-957.19 0c-46.5,0 -84.52,-38.03 -84.52,-84.52 0,-46.5 38.02,-84.53 84.52,-84.53z"/>
  <path class="fil5 str1" d="M2311.35 3818.56l957.19 0c46.49,0 84.52,38.03 84.52,84.53 0,46.49 -38.03,84.52 -84.52,84.52l-957.19 0c-46.5,0 -84.52,-38.03 -84.52,-84.52 0,-46.5 38.02,-84.53 84.52,-84.53z"/>
  <path class="fil5 str1" d="M2320.99 4304.35l957.19 0c46.49,0 84.51,38.03 84.51,84.53 0,46.49 -38.02,84.52 -84.51,84.52l-957.19 0c-46.5,0 -84.53,-38.03 -84.53,-84.52 0,-46.5 38.03,-84.53 84.53,-84.53z"/>
  <path class="fil6 str2" d="M3252.09 4231.87c59.06,-44.12 160.58,-149.72 233.65,-226.88 73.05,-77.16 117.61,-125.88 152.09,-160.62 34.46,-34.72 58.83,-55.46 89.22,-63.2 30.39,-7.75 66.79,-2.49 90.71,7.44 23.9,9.96 35.3,24.61 43.98,41.69 8.66,17.1 14.59,36.6 16.63,57.44 2.03,20.85 0.15,43.01 -4.83,63.4 -4.98,20.41 -13.05,39.02 -32.53,64.54 -19.48,25.52 -50.35,57.92 -132.57,141.49 -82.25,83.59 -215.84,218.33 -295.04,297.26 -79.22,78.94 -104.06,102.08 -126.12,117.99 -22.05,15.93 -41.34,24.67 -60.82,30.37 -19.48,5.71 -39.18,8.41 -60.54,0.28 -21.36,-8.14 -44.43,-27.12 -70.43,-48.62 -25.99,-21.47 -54.95,-45.49 -84.54,-73.72 -29.59,-28.22 -59.85,-60.64 -85.87,-87.77 -26.03,-27.12 -47.83,-48.91 -64.41,-70.77 -16.6,-21.84 -27.99,-43.77 -32.21,-63.68 -4.24,-19.89 -1.34,-37.79 6.26,-56.43 7.57,-18.63 19.85,-38 40.8,-55.23 20.93,-17.23 50.54,-32.3 79,-34.33 28.44,-2.04 55.76,8.96 80.52,23.46 24.74,14.5 46.97,32.51 67.33,50.63 20.37,18.11 38.9,36.34 56.47,54.15 17.56,17.82 34.18,35.22 93.25,-8.89z"/>
  <path class="fil1 str0" d="M1773.7 4402.57c17.13,-13.46 49.06,-41.85 74.27,-64.61 25.18,-22.77 43.65,-39.9 58.87,-50.91 15.21,-11.01 27.19,-15.92 37.85,-17.82 10.67,-1.9 20.04,-0.8 28.78,1.94 8.75,2.74 16.9,7.12 23.07,11.82 6.17,4.71 10.39,9.74 13.6,15.6 3.19,5.86 5.37,12.55 6.13,19.7 0.76,7.15 0.05,14.76 -1.79,21.75 -1.84,7 -4.81,13.39 -12,22.14 -7.19,8.76 -18.59,19.88 -48.96,48.54 -30.38,28.68 -79.7,74.9 -108.95,101.98 -29.26,27.08 -38.43,35.02 -46.56,40.74 -8.12,5.72 -15.22,9.24 -22.52,11.69 -7.32,2.45 -14.86,3.85 -23.05,3.42 -8.18,-0.43 -16.99,-2.68 -27.92,-9.02 -10.96,-6.34 -24.04,-16.77 -36.83,-28.11 -12.8,-11.35 -25.31,-23.61 -34.67,-34.43 -9.36,-10.81 -15.54,-20.18 -19.53,-28.64 -3.98,-8.45 -5.78,-16 -6.12,-22.84 -0.37,-6.84 0.71,-12.99 3.51,-19.38 2.79,-6.39 7.33,-13.04 12.32,-18.34 5,-5.3 10.47,-9.26 15.18,-12.04 4.7,-2.77 8.67,-4.36 13.22,-5.91 4.54,-1.55 9.7,-3.05 15.68,-3.51 5.97,-0.46 12.81,0.12 18.63,1.28 5.84,1.18 10.67,2.92 16.64,6.11 5.97,3.18 13.09,7.81 18.21,11.27 5.11,3.47 8.2,5.79 10.9,7.68 2.67,1.89 4.93,3.36 22.04,-10.1z"/>
 </g>
</svg>
