<?xml version="1.0" encoding="UTF-8"?>
<!DOCTYPE svg PUBLIC "-//W3C//DTD SVG 1.1//EN" "http://www.w3.org/Graphics/SVG/1.1/DTD/svg11.dtd">
<!-- Creator: CorelDRAW -->
<svg xmlns="http://www.w3.org/2000/svg" xml:space="preserve" width="50mm" height="50mm" version="1.1" style="shape-rendering:geometricPrecision; text-rendering:geometricPrecision; image-rendering:optimizeQuality; fill-rule:evenodd; clip-rule:evenodd"
viewBox="0 0 5000 5000"
 xmlns:xlink="http://www.w3.org/1999/xlink"
 xmlns:xodm="http://www.corel.com/coreldraw/odm/2003">
 <defs>
  <style type="text/css">
   <![CDATA[
    .str0 {stroke:#373435;stroke-width:20;stroke-miterlimit:22.9256}
    .fil1 {fill:#FEFEFE}
    .fil2 {fill:black}
    .fil0 {fill:#38B6FF}
   ]]>
  </style>
 </defs>
 <g id="Camada_x0020_1">
  <metadata id="CorelCorpID_0Corel-Layer"/>
  <g id="_2775395152544">
   <path class="fil0 str0" d="M491.79 2942.26c-4.6,-256.57 13.88,-730.75 11.58,-988.19 -2.31,-257.44 -25.41,-298.14 -101.69,-348.3 -76.29,-50.17 -205.75,-109.79 -207.06,-256.68 -1.32,-146.89 125.51,-381.05 203.42,-504.16 77.9,-123.12 106.86,-135.19 287.91,-191.91 181.04,-56.73 514.16,-158.12 835.73,-249.59 321.57,-91.48 631.58,-173.05 817.45,-202.01 185.87,-28.97 247.6,-5.34 422.08,39.07 174.49,44.41 461.75,109.58 741.76,188.04 280.01,78.45 552.78,170.17 725.5,233.92 172.73,63.75 245.42,99.51 323.89,192.29 78.47,92.78 162.73,242.58 204.08,353.37 41.35,110.78 39.79,182.55 -12.48,259.01 -52.27,76.46 -155.26,157.6 -199.16,240.15 -43.89,82.55 -28.7,166.5 -25.36,387.29 3.35,220.78 -5.16,578.4 -12.52,802.37 -7.35,223.98 -13.57,314.31 -278.15,446.84 -264.58,132.53 -787.52,307.25 -1095.05,409.99 -307.52,102.75 -399.62,133.52 -475.47,139.03 -75.84,5.52 -135.44,-14.21 -319.66,-75.23 -184.23,-61.01 -493.09,-163.29 -756.14,-243.41 -263.06,-80.11 -480.32,-138.04 -644.46,-183.91 -164.15,-45.86 -275.2,-79.66 -344.56,-116.05 -69.36,-36.38 -97.05,-75.35 -101.64,-331.93z"/>
   <rect class="fil1 str0" x="1357.82" y="2370.22" width="2267.83" height="2474.61" rx="219.37" ry="219.37"/>
   <g>
    <path class="fil2" d="M1436.57 4592.17l0 -1962.21c0,-107.77 50.87,-200.04 142.87,-200.04l1828.86 0c92,0 142.87,92.27 142.87,200.04l0 1962.21c0,121.9 -68.59,190.5 -190.5,190.5l-1733.6 0c-121.91,0 -190.5,-68.6 -190.5,-190.5zm3495.77 -3277.2l0 60.43c-6.57,87.32 -41.56,172.04 -102.25,237.88 -78.07,84.69 -165.17,94.22 -221.61,121.3 0,453.79 -3.03,908.6 0.13,1362.25 1.27,182.36 -88.18,246.12 -232.57,281.79l-662.94 184.81 0.34 1057.65c0.21,174.47 -141.11,323.52 -305.14,323.52l-1828.86 0c-162.99,0 -306.05,-145.18 -305.04,-333.16l0.24 -1048.01 -535.38 -150.44c-204.32,-55.68 -361.84,-73.47 -360.13,-316.16 3.19,-453.64 0.13,-908.47 0.13,-1362.25 -40.07,-19.23 -84.44,-25.21 -123.68,-47.77 -145.2,-83.51 -200.18,-196.81 -200.18,-371.33 0,-67.54 32.06,-135.68 58.84,-179.3l255.81 -430.02c36.94,-65.95 57.95,-66.16 139.23,-89.37l1245.73 -354.51c146.86,-41.8 611.72,-194.62 757.91,-194.62 81.2,0 1374.7,380.05 1439.44,398.93l533.45 152.37c85.69,24.59 92.89,20.71 135.3,93.31 57.97,99.27 111.41,189.78 170.15,287.07 30.08,49.84 55.61,93 85.85,142.76 32.57,53.61 50.69,112.97 55.23,172.87zm-2352.74 286.26c5.93,6.83 3.11,2.11 13.07,15.49l39.95 64.83c19.07,31.78 31.58,52.96 49.96,83.41 107.04,177.33 194.25,369.69 439.96,369.69 58.35,0 115.89,-19.89 165.95,-34.08l983.3 -274.04c44.2,-12.85 125.41,-41.01 165.23,-44.32l0.26 1305.22c0.54,55.27 5.38,87.89 -34.76,108.11 -19.83,10 -90.24,27.09 -110.33,32.55l-457.26 123.79c-42.3,10.76 -78.07,26.93 -121.83,30.58 0,-241.31 -0.06,-482.62 0,-723.93 0.04,-139.92 -5.16,-210.53 -78.35,-283.6 -65.7,-65.63 -126.5,-116.46 -255.03,-116.46l-800.12 0 0 -657.24zm-1304.96 1781.23c-41.49,-3.46 -77.32,-18.93 -114.25,-28.63 -40.08,-10.52 -71.21,-20.05 -112.36,-30.52l-456.11 -124.94c-43.54,-18.29 -42.04,-43.77 -41.61,-101.26l0.41 -1314.9 1141.06 316.3c46.79,12.76 111.4,36.14 173.42,36.14 329.58,0 407.68,-377.81 542.95,-533.42l0 657.24 -800.13 0c-125.45,0 -185.52,47.7 -250.2,111.76 -74.39,73.64 -83.27,137.21 -83.18,278.78 0.14,244.48 0,488.97 0,733.45zm1352.58 -2047.94c74.63,-6.2 1799.94,-512.87 1866.96,-514.36 7.99,29.94 50.34,92 68.47,122.03l141.63 239.38c53.31,88.38 94.72,173.57 30.35,279.1 -64.76,106.15 -255.85,131.66 -406.5,174.54l-893.25 249.78c-190.14,48.36 -376.4,157.56 -497.47,-22.43l-260.76 -434.58c-9.41,-15.56 -14.71,-24.34 -25.2,-41.49 -10.17,-16.64 -7.5,-9.83 -14.21,-23.89 -6.66,-13.99 -6.9,-21.12 -10.02,-28.08zm-752.49 628.67c-94.41,0 -1134.73,-305.08 -1215.12,-327.98 -147.25,-41.92 -339.71,-71.18 -402.79,-168.72 -92.76,-143.4 12.74,-261.72 94.4,-398.15l142.34 -248.18c71.04,1.58 1783.22,507.39 1866.96,514.36 -7.61,32.68 -268.49,463.33 -306.44,522.26 -33.78,52.44 -96.61,106.41 -179.35,106.41zm-1095.41 -1247.81c164.22,-38.26 675.89,-191.79 853.16,-242.25 147.84,-42.08 282.09,-80.45 429.44,-123.02l431.95 -118.41c62.06,0 1480.25,429.09 1714.55,483.68l-1499.59 424.52c-261.05,74.32 -171.34,73.16 -421.14,0.74l-647.78 -180.92c-147.49,-42.62 -287.29,-80.07 -431.96,-120.51l-428.63 -123.83z"/>
    <path class="fil2" d="M2331.94 4373.08c0,51.07 22.42,85.74 76.21,85.74l819.17 0c105.62,0 121.36,-171.47 -28.58,-171.47l-742.97 0c-68.49,0 -123.83,17.81 -123.83,85.73z"/>
    <path class="fil2" d="M2331.94 3382.46c0,45.09 0.93,104.77 104.78,104.77l781.07 0c113.79,0 133.13,-171.45 -9.52,-171.45l-790.61 0c-39.27,0 -85.72,32.02 -85.72,66.68z"/>
    <path class="fil2" d="M2331.94 2906.19c0,75.32 51.53,95.25 133.36,95.25l714.39 0c64.13,0 108.79,-15.29 126.26,-65.18 17.34,-49.51 -19.19,-106.27 -78.63,-106.27l-819.17 0c-46.08,0 -76.21,30.12 -76.21,76.2z"/>
    <path class="fil2" d="M2331.94 3868.25c0,50.78 13.24,104.78 85.72,104.78l800.13 0c118.81,0 118.81,-171.47 0,-171.47l-800.13 0c-37.18,0 -85.72,36.35 -85.72,66.69z"/>
    <path class="fil2" d="M1846.16 3363.4c-22.82,-15.27 -44.23,-47.62 -76.21,-47.62 -79.15,0 -85.72,53.57 -85.72,104.78 0,19.43 84.8,142.87 161.93,142.87 58.19,0 211.59,-178.58 259.56,-226.21 26.64,-26.45 64.29,-50.34 64.29,-97.64 0,-42.48 -38.58,-85.74 -76.2,-85.74 -65.15,0 -99.98,57.12 -135.74,92.88 -37.45,37.46 -83.99,74.99 -111.91,116.68z"/>
    <path class="fil2" d="M1846.16 3849.2c-26.61,-17.81 -42.5,-47.23 -84.65,-45.12 -57.58,2.88 -77.28,43.54 -77.28,92.74 0,50.66 101.73,152.41 152.4,152.41 77.93,0 109.23,-66.38 192.88,-150.03 52.13,-52.12 140.5,-122.02 140.5,-173.84 0,-47.88 -41.41,-85.72 -85.72,-85.72 -44.1,0 -99.21,65.84 -126.22,92.87 -37.45,37.47 -83.99,74.98 -111.91,116.69z"/>
    <path class="fil2" d="M1836.63 2877.62c-10.05,-27.77 9.48,-7.4 -25.59,-31.57 -39.87,-27.46 -126.81,-38.41 -126.81,88.72 0,19.09 105.61,142.87 161.93,142.87 52.08,0 125.91,-92.57 178.59,-145.25 52.67,-52.68 145.26,-126.51 145.26,-178.6 0,-47.08 -38.64,-85.73 -85.72,-85.73 -73.32,0 -159.92,150.8 -247.66,209.56z"/>
    <path class="fil2" d="M1846.16 4334.99c-46.29,-31 -22.66,-38.11 -104.78,-38.11 -20.52,0 -120.16,58.48 -12.08,164.48 56.01,54.93 90.54,114.97 173.03,53.69l156.84 -157.55c8.46,-9.26 9.38,-10.88 18.01,-20.11l72.51 -70.35c43.21,-58.12 15.52,-124.71 -50.76,-135.4 -81.73,-13.19 -140.69,128.29 -252.77,203.35z"/>
   </g>
  </g>
 </g>
</svg>
