<?xml version="1.0" encoding="UTF-8"?>
<!DOCTYPE svg PUBLIC "-//W3C//DTD SVG 1.1//EN" "http://www.w3.org/Graphics/SVG/1.1/DTD/svg11.dtd">
<!-- Creator: CorelDRAW -->
<svg xmlns="http://www.w3.org/2000/svg" xml:space="preserve" width="50mm" height="50mm" version="1.1" style="shape-rendering:geometricPrecision; text-rendering:geometricPrecision; image-rendering:optimizeQuality; fill-rule:evenodd; clip-rule:evenodd"
viewBox="0 0 5000 5000"
 xmlns:xlink="http://www.w3.org/1999/xlink"
 xmlns:xodm="http://www.corel.com/coreldraw/odm/2003">
 <defs>
  <style type="text/css">
   <![CDATA[
    .str0 {stroke:#373435;stroke-width:282.22;stroke-miterlimit:22.9256}
    .str1 {stroke:#38B6FF;stroke-width:20;stroke-miterlimit:22.9256}
    .fil0 {fill:none}
    .fil1 {fill:#38B6FF}
   ]]>
  </style>
 </defs>
 <g id="Camada_x0020_1">
  <metadata id="CorelCorpID_0Corel-Layer"/>
  <circle class="fil0 str0" cx="2493.87" cy="2506.13" r="2224.82"/>
  <path class="fil1 str1" d="M2268.38 3972.18c-189.63,-1.32 -379.63,-0.1 -569.3,-0.06 -195.31,0 -340.48,9.77 -477.95,-90.72 -99.54,-72.79 -187.57,-194.3 -192.94,-375.01 -5.53,-187.92 -0.38,-384.1 -0.38,-572.94 0,-381.71 0.42,-763.47 -0.01,-1145.21 -0.23,-205.79 41.01,-304.99 154.2,-414.38 160.76,-155.51 343.18,-104.64 444.86,-127.14 0,-49.76 -6.22,-114.41 15.56,-156.11 19.24,-36.67 60.81,-67.8 116.49,-66.46 123.99,3.08 124.45,116.02 124.45,226.95l435.78 -0.02 49.26 -0.13c0,-64.99 -19.84,-224.65 125.47,-226.92 129.2,-1.98 131.26,112.31 131.26,223.59l490.68 3.4c0,-77.41 -17.89,-228.08 130.12,-226.95 51.66,0.42 91.19,30.98 109.69,65 23.15,42.55 16.71,107.56 16.71,162.03 158.84,0 277.41,0.82 393.29,77.49 86.99,57.57 161.91,148.53 195.52,274.36 29.13,109.19 24.11,780.92 15.27,927.93 -9.89,164.99 -214.44,161.26 -249.17,40.71 -30.09,-104.18 18.56,-804.46 -19.71,-920.29 -54.17,-163.81 -221.7,-143.63 -333.61,-143.63 -4.47,61.41 20.43,225.1 -128.1,227.55 -154.02,2.41 -128.55,-175.88 -131.11,-225.94l-488.67 -1.43c-2.36,55.46 20.78,229.54 -131.87,227.37 -147.5,-2.14 -122.94,-170.01 -127.55,-227.45l-481.01 0.06c-4.39,51.1 23.02,223.95 -127.16,227.5 -150.01,3.54 -130.14,-164.54 -132.43,-224.39 -178.46,-29.41 -325.9,33.67 -340.13,196.86 -13.98,160.32 -1.29,383.46 -1.29,550.49 0,370.33 0.03,740.7 0,1111.03 0,85.03 -9.16,174.02 29.44,239.93 30.12,51.6 88,96.92 167.26,104.57 137.04,13.21 625.4,1.65 824.57,1.65 96.63,0 184.9,-17.46 243.54,42.72 63.19,64.78 33.8,152.8 -22.22,191.65 -52.29,36.29 -185.42,22.7 -258.81,22.34zm-547.62 -1842.58c-157.1,61.27 -57.07,262.35 76.99,211.03 133.66,-51.12 58.13,-263.69 -76.99,-211.03zm503.87 -5.18c-131.2,30.79 -101.52,256.28 54.71,220.83 49.66,-11.3 97.74,-67.89 82.71,-134.58 -11.83,-52.36 -70.8,-101.83 -137.42,-86.25zm495.88 0.18c-141.53,34.22 -90.62,266.43 61.65,218.51 136.39,-42.97 79.19,-252.56 -61.65,-218.51zm492.21 3c-155.7,51.58 -67.45,266.36 72.06,213.13 134,-51.16 62.41,-257.65 -72.06,-213.13zm1.11 496.2c-156.63,52.49 -66.97,260.1 65.5,215.1 145.59,-49.48 64.86,-258.8 -65.5,-215.1zm-496.21 -0.28c-155.6,49.87 -69.26,262.32 65.88,215.25 142.44,-49.65 66.76,-257.74 -65.88,-215.25zm-496.15 -0.24c-143.89,44.7 -81.66,258.48 59.86,217.35 144.81,-42.06 82.76,-261.64 -59.86,-217.35zm-491.64 -2.81c-138.96,30.85 -100.16,255.91 49.27,221.88 143.73,-32.76 100.64,-255.18 -49.27,-221.88zm-2.9 499.04c-154.83,47.01 -75.78,257.16 59.41,217.49 142.84,-41.9 80.85,-260.08 -59.41,-217.49zm500.36 -2.39c-139.28,33.07 -102.2,254.02 48.26,221.65 53.65,-11.5 101.78,-67.6 87.02,-136.85 -11.46,-53.73 -70.06,-100.27 -135.28,-84.8zm1574.51 -245.76c-50.86,20.5 -63.33,49.86 -91.49,90.68 -27.24,39.57 -49.67,67.58 -78.78,109.13 -50.86,72.64 -99.01,140.87 -153.37,214.16 -385.61,519.82 -264.05,511.18 -519.03,268.25 -64.78,-61.73 -124.19,-116.93 -188.23,-179.38 -30.65,-29.91 -50.8,-62.65 -114.64,-62.32 -59.13,0.28 -96.61,31.36 -114.71,71.06 -51.2,112.22 69.82,188.83 116.12,232.88 100.25,95.35 271.55,302.36 393.83,341.33 241.29,76.88 362.76,-137.83 450.51,-263.27 100.72,-143.94 199.63,-285.45 306.06,-429.06l152.49 -214.87c56.02,-108.51 -48.72,-222.98 -158.76,-178.59zm-1482.66 -2544.5c-371.67,0 -841.8,204.53 -1135.21,424.84 -176.88,132.79 -200.38,168.48 -337.33,312.28 -22.3,23.38 -37.88,43.57 -59.32,68.84 -189.35,222.69 -367.45,594.41 -427.87,879.73 -31.17,147.09 -48.77,290.36 -53.36,430.04l0 145.83c13.02,395.39 132.95,762.19 348.73,1107.3 326.87,522.63 888.35,872.34 1495.95,973.96 26.24,4.35 89.98,15.01 117.65,15.73 50.49,0 69.98,7.27 114.89,8.54l93.72 0c21.19,-0.03 42.4,-0.03 63.63,0l5.61 0c464.04,0.29 908.27,-172.06 1272.32,-444.37 85.89,-64.27 233.84,-188.37 299.11,-273.5 156.11,-203.87 183.73,-190.59 347.6,-515.59 138.17,-274.23 209.15,-583.2 216.43,-893.94l0 -107.46c-7.2,-303.08 -74.72,-604.29 -199.33,-873.13 -78.9,-170.07 -182.01,-332.49 -302.24,-475.51 -343.44,-408.27 -779.79,-669.26 -1321.12,-764.14 -43.78,-7.72 -159.62,-21 -274.41,-28.01l-226.51 0c-16.07,2.09 -29.3,4.87 -38.94,8.56z"/>
 </g>
</svg>
