<?xml version="1.0" encoding="UTF-8"?>
<!DOCTYPE svg PUBLIC "-//W3C//DTD SVG 1.1//EN" "http://www.w3.org/Graphics/SVG/1.1/DTD/svg11.dtd">
<!-- Creator: CorelDRAW -->
<svg xmlns="http://www.w3.org/2000/svg" xml:space="preserve" width="6.54mm" height="6.54mm" version="1.1" style="shape-rendering:geometricPrecision; text-rendering:geometricPrecision; image-rendering:optimizeQuality; fill-rule:evenodd; clip-rule:evenodd"
viewBox="0 0 654 654"
 xmlns:xlink="http://www.w3.org/1999/xlink"
 xmlns:xodm="http://www.corel.com/coreldraw/odm/2003">
 <defs>
  <style type="text/css">
   <![CDATA[
    .str0 {stroke:#38B6FF;stroke-width:7.62;stroke-miterlimit:22.9256}
    .fil0 {fill:#38B6FF}
   ]]>
  </style>
 </defs>
 <g id="Camada_x0020_1">
  <metadata id="CorelCorpID_0Corel-Layer"/>
  <path class="fil0 str0" d="M627.73 170.22l-498.99 0 0 -54.81c0,-9.1 7.45,-16.55 16.55,-16.55l89.75 0 0 -19.13c0,-8.9 7.28,-16.18 16.19,-16.18l3.43 0c8.91,0 16.19,7.28 16.19,16.18l0 19.13 88.89 0 0 -19.13c0,-8.9 7.28,-16.18 16.18,-16.18l3.44 0c8.9,0 16.18,7.28 16.18,16.18l0 19.13 215.63 0c9.11,0 16.56,7.45 16.56,16.55l0 54.81zm-106.39 -71.73l-35.8 0 0 -19.13c0,-8.9 7.28,-16.18 16.18,-16.18l3.44 0c8.9,0 16.18,7.28 16.18,16.18l0 19.13zm-394.15 107.31l500.17 0c0.78,53.34 -13.17,101.41 -28.29,149.06 -16.96,51.94 -48.61,96.62 -91.39,135.8l-474.96 0c-3.52,-0.35 -6.35,-1.94 -8.45,-4.84 -2.43,-2.8 -3.49,-7.34 -4.4,-12.07 0.76,-5.29 1.46,-8.53 4.2,-12.22l7.28 -7.93 7.15 -6.16 28.85 -38.62 35.86 -73.06 16.58 -61.01 7.4 -68.95zm500.17 320.25l-116.57 -0.79 14.89 -4.51 8.91 -5.43 12.18 -10.91 10.94 -11.45 19.74 -23.64 7.65 -9.8 1.96 -3.13 0.98 -1.75 1.7 -2.51 4.46 -6.83 4.09 -6.61 29.07 -59.41 0 146.77 0 56.57c0,8.03 -6.57,14.6 -14.6,14.6l-469.79 0c-8.03,0 -14.6,-6.57 -14.6,-14.6l0 -56.57 498.99 0z"/>
 </g>
</svg>
