<?xml version="1.0" encoding="UTF-8"?>
<!DOCTYPE svg PUBLIC "-//W3C//DTD SVG 1.1//EN" "http://www.w3.org/Graphics/SVG/1.1/DTD/svg11.dtd">
<!-- Creator: CorelDRAW -->
<svg xmlns="http://www.w3.org/2000/svg" xml:space="preserve" width="50mm" height="50mm" version="1.1" style="shape-rendering:geometricPrecision; text-rendering:geometricPrecision; image-rendering:optimizeQuality; fill-rule:evenodd; clip-rule:evenodd"
viewBox="0 0 5000 5000"
 xmlns:xlink="http://www.w3.org/1999/xlink"
 xmlns:xodm="http://www.corel.com/coreldraw/odm/2003">
 <defs>
  <style type="text/css">
   <![CDATA[
    .str1 {stroke:#373435;stroke-width:20;stroke-miterlimit:22.9256}
    .str0 {stroke:#84716B;stroke-width:20;stroke-miterlimit:22.9256}
    .fil0 {fill:#4C483E}
    .fil2 {fill:black}
    .fil1 {fill:#0F1533}
   ]]>
  </style>
 </defs>
 <g id="Camada_x0020_1">
  <metadata id="CorelCorpID_0Corel-Layer"/>
  <path class="fil0 str0" d="M310.55 4656.66c-4.22,-50.15 -2.33,-152.31 -0.94,-233.85 1.42,-81.56 2.35,-142.47 3.74,-172.92 1.42,-30.48 3.31,-30.48 142.49,-30.48 139.19,0 415.67,0 1104.55,3.29 688.9,3.28 1790.17,9.84 2373.15,12.19 582.98,2.35 647.67,0.46 684.21,5.15 36.56,4.68 44.99,15.94 48.28,60.93 3.28,44.98 1.39,123.71 0.91,190.73 -0.46,67.01 0.48,122.31 -18.74,156.05 -19.21,33.74 -58.56,45.93 -119.49,48.28 -60.91,2.33 -143.4,-5.17 -196.35,-10.78 -52.96,-5.63 -76.39,-9.39 -89.04,-33.76 -12.65,-24.37 -14.54,-69.34 -30.95,-91.36 -16.39,-22.05 -47.31,-21.11 -624.68,-24.39 -577.34,-3.28 -1701.11,-10.76 -2263.48,-9.35 -562.35,1.39 -563.3,11.69 -562.37,32.32 0.94,20.61 3.76,51.54 4.22,76.39 0.48,24.82 -1.39,43.58 -53.41,54.36 -52.02,10.77 -154.19,13.59 -222.62,13.59 -68.4,0 -103.1,-2.82 -123.25,-3.28 -20.15,-0.48 -25.76,1.41 -33.73,3.28 -7.96,1.87 -18.28,3.76 -22.5,-46.39z"/>
  <rect class="fil1 str1" x="516.87" y="2938.86" width="3933.39" height="1297.6"/>
  <rect class="fil1 str1" x="1836" y="315.51" width="1304.6" height="1267.64"/>
  <rect class="fil1 str1" x="1187.14" y="1634.74" width="2606.52" height="1258.52"/>
  <path class="fil2" d="M684.55 4532.84l0 72.45 -289.81 0 0 -289.81 4202.25 0 0 289.81 -289.81 0c0,-59.55 13.69,-144.9 -72.45,-144.9l-3477.72 0c-43.81,0 -72.46,28.64 -72.46,72.45zm2535.85 -1521.51l362.26 0 0 362.27c0,43.81 28.64,72.45 72.45,72.45l289.81 0c43.81,0 72.45,-28.64 72.45,-72.45l0 -362.27 362.27 0 0 1159.25 -1159.24 0 0 -1159.25zm-1304.15 0l362.26 0 0 362.27c0,43.81 28.65,72.45 72.45,72.45l289.81 0c43.81,0 72.46,-28.64 72.46,-72.45l0 -362.27 362.26 0 0 1159.25 -1159.24 0 0 -1159.25zm-1304.15 0l362.27 0 0 362.27c0,43.81 28.64,72.45 72.45,72.45l289.81 0c43.81,0 72.45,-28.64 72.45,-72.45l0 -362.27 362.26 0 0 1159.25 -1159.24 0 0 -1159.25zm3115.46 0l144.91 0 0 289.81 -144.91 0 0 -289.81zm-1304.14 0l144.9 0 0 289.81 -144.9 0 0 -289.81zm-1304.15 0l144.91 0 0 289.81 -144.91 0 0 -289.81zm1449.05 -1304.14l362.26 0 0 362.26c0,43.81 28.65,72.45 72.46,72.45l289.81 0c43.81,0 72.45,-28.64 72.45,-72.45l0 -362.26 362.26 0 0 1159.24 -1159.24 0 0 -1159.24zm-1304.14 0l362.26 0 0 362.26c0,43.81 28.64,72.45 72.45,72.45l289.81 0c43.81,0 72.45,-28.64 72.45,-72.45l0 -362.26 362.27 0 0 1159.24 -1159.24 0 0 -1159.24zm1811.31 0l144.91 0 0 289.81 -144.91 0 0 -289.81zm-1304.15 0l144.91 0 0 289.81 -144.91 0 0 -289.81zm144.91 -1304.15l362.26 0 0 362.26c0,43.81 28.65,72.46 72.45,72.46l289.81 0c43.81,0 72.46,-28.65 72.46,-72.46l0 -362.26 362.26 0 0 1159.24 -1159.24 0 0 -1159.24zm507.17 0l144.9 0 0 289.81 -144.9 0 0 -289.81zm-652.08 -72.45l0 1231.69 -579.62 0c-43.81,0 -72.45,28.65 -72.45,72.46l0 1231.69 -579.62 0c-43.81,0 -72.45,28.64 -72.45,72.45l0 1231.7c-269.16,0 -217.36,-59.61 -217.36,507.16 0,43.81 28.64,72.46 72.45,72.46l434.72 0c86.13,0 72.45,-85.36 72.45,-144.91l3332.82 0c0,186.28 -15.04,144.91 507.17,144.91 43.81,0 72.45,-28.65 72.45,-72.46l0 -434.71c0,-94.72 -108.52,-72.45 -217.36,-72.45l0 -1231.7c0,-43.81 -28.64,-72.45 -72.45,-72.45l-579.62 0 0 -1231.69c0,-43.81 -28.65,-72.46 -72.45,-72.46l-579.62 0 0 -1231.69c0,-43.81 -28.65,-72.45 -72.46,-72.45l-1304.14 0c-43.81,0 -72.46,28.64 -72.46,72.45z"/>
  <polygon class="fil2" points="2640.77,1417.38 2930.58,1417.38 2930.58,1272.47 2640.77,1272.47 "/>
  <polygon class="fil2" points="1988.7,2721.52 2278.51,2721.52 2278.51,2576.62 1988.7,2576.62 "/>
  <polygon class="fil2" points="3292.85,2721.52 3582.66,2721.52 3582.66,2576.62 3292.85,2576.62 "/>
  <polygon class="fil2" points="1336.63,4025.67 1626.44,4025.67 1626.44,3880.77 1336.63,3880.77 "/>
  <polygon class="fil2" points="2640.77,4025.67 2930.58,4025.67 2930.58,3880.77 2640.77,3880.77 "/>
  <polygon class="fil2" points="3944.92,4025.67 4234.73,4025.67 4234.73,3880.77 3944.92,3880.77 "/>
 </g>
</svg>
