<?xml version="1.0" encoding="UTF-8"?>
<!DOCTYPE svg PUBLIC "-//W3C//DTD SVG 1.1//EN" "http://www.w3.org/Graphics/SVG/1.1/DTD/svg11.dtd">
<!-- Creator: CorelDRAW -->
<svg xmlns="http://www.w3.org/2000/svg" xml:space="preserve" width="13mm" height="13mm" version="1.1" style="shape-rendering:geometricPrecision; text-rendering:geometricPrecision; image-rendering:optimizeQuality; fill-rule:evenodd; clip-rule:evenodd"
viewBox="0 0 1300 1300"
 xmlns:xlink="http://www.w3.org/1999/xlink"
 xmlns:xodm="http://www.corel.com/coreldraw/odm/2003">
 <defs>
  <style type="text/css">
   <![CDATA[
    .str0 {stroke:#38B6FF;stroke-width:20;stroke-miterlimit:22.9256}
    .str1 {stroke:#FEFEFE;stroke-width:20;stroke-miterlimit:22.9256}
    .fil0 {fill:#38B6FF}
    .fil1 {fill:#FEFEFE}
    .fil2 {fill:black;fill-rule:nonzero}
    .fil3 {fill:black;fill-rule:nonzero}
   ]]>
  </style>
 </defs>
 <g id="Camada_x0020_1">
  <metadata id="CorelCorpID_0Corel-Layer"/>
  <circle class="fil0 str0" cx="648.07" cy="651.93" r="625.21"/>
  <circle class="fil1 str1" cx="648.07" cy="651.93" r="586.12"/>
  <circle class="fil0 str0" cx="648.07" cy="651.93" r="549.67"/>
  <path class="fil2" d="M246.01 407.12l14.99 0 0 146.59 52.79 0 0 15.81 -67.78 0 0 -162.4zm110.82 162.4l0 -64.96 0 -64.14 -19.56 0 0 -9.99c15.22,0 24.12,-7.78 26.74,-23.31l7.81 0 0 162.4 -14.99 0zm52.82 -81.63c0,-32.76 5.21,-55.79 15.63,-69.12 6.1,-7.78 12.83,-11.65 20.23,-11.65 7.37,0 14.1,3.87 20.2,11.65 10.42,13.33 15.65,36.36 15.65,69.12 0,33.34 -5.23,56.65 -15.65,69.97 -6.1,7.79 -12.83,11.66 -20.2,11.66 -7.4,0 -14.13,-3.87 -20.23,-11.66 -10.42,-13.32 -15.63,-36.63 -15.63,-69.97zm56.72 0c0,-29.42 -4.14,-49.39 -12.4,-59.95 -2.59,-3.34 -5.43,-5.01 -8.46,-5.01 -3.06,0 -5.87,1.67 -8.48,5.01 -8.27,11.09 -12.38,31.1 -12.38,59.95 0,29.99 4.11,50.25 12.38,60.81 2.61,3.34 5.42,5.01 8.48,5.01 3.03,0 5.87,-1.67 8.46,-5.01 8.26,-10.56 12.4,-30.82 12.4,-60.81zm183.2 19.16c-1.31,24.98 -5.45,41.93 -12.4,50.81 -6.09,7.79 -13.24,11.66 -21.5,11.66 -8.27,0 -15.44,-3.87 -21.53,-11.66 -10.85,-13.89 -16.3,-35.53 -16.3,-64.96 0,-34.43 5.86,-59.13 17.6,-74.13 6.09,-7.78 13.05,-11.65 20.86,-11.65 8.27,0 14.78,3.05 19.57,9.17 9.12,11.65 13.48,27.47 13.04,47.47l-14.36 0c-0.41,-17.77 -3.03,-29.71 -7.81,-35.82 -2.62,-3.34 -6.09,-5.01 -10.44,-5.01 -3.89,0 -7.36,1.96 -10.42,5.83 -8.68,11.12 -13.05,31.95 -13.05,62.47 0,26.65 3.7,44.71 11.1,54.12 3.47,4.45 7.4,6.69 11.74,6.69 3.89,0 7.59,-2.24 11.07,-6.69 4.34,-5.54 6.73,-18.3 7.18,-38.3l15.65 0zm13.69 -99.93l14.99 0 0 146.59 52.8 0 0 15.81 -67.79 0 0 -162.4zm99.75 68.3l44.31 0 0 15.81 -44.31 0 0 62.48 51.49 0 0 15.81 -66.48 0 0 -162.4 63.23 0 0 15.81 -48.24 0 0 52.49zm76.92 94.1l-15.64 0 32.61 -162.4 13.01 0 32.61 162.4 -15.64 0 -9.12 -47.48 -28.71 0 -9.12 47.48zm24.11 -118.27l-1.27 0 -10.44 54.98 22.15 0 -10.44 -54.98zm116.06 -44.13l0 162.4 -18.25 0 -33.91 -121.61 -0.64 0 0 121.61 -14.99 0 0 -162.4 18.25 0 33.91 121.6 0.64 0 0 -121.6 14.99 0z"/>
  <path class="fil3" d="M170.67 863.85l0 -165.47 14.51 0 0 66.19 35.95 0 0 -66.19 14.51 0 0 165.47 -14.51 0 0 -41.57 0 -41.6 -35.95 0 0 83.17 -14.51 0zm120.49 -18.68l6.94 0 0 18.68 -28.39 0 0 -18.68 6.95 0 0 -128.14 -6.95 0 0 -18.65 28.39 0 0 18.65 -6.94 0 0 128.14zm92.7 -95.05c-0.4,-14.7 -2.53,-24.58 -6.29,-29.69 -2.96,-3.94 -6.33,-5.93 -10.1,-5.93 -3.36,0 -6.11,1.41 -8.2,4.23 -9.26,12.46 -13.89,34.51 -13.89,66.19 0,27.73 3.36,46.13 10.1,55.18 3.36,4.52 6.72,6.77 10.08,6.77 4.23,0 8,-2.25 11.36,-6.77 5.06,-6.81 7.59,-18.11 7.59,-33.97l0 -16.11 -19.56 0 0 -16.11 32.16 0 0 89.94 -10.71 0 -1.89 -15.28c-5.9,10.17 -12.84,15.28 -20.83,15.28 -7.13,0 -13.24,-3.41 -18.3,-10.18 -9.66,-13.03 -14.5,-35.91 -14.5,-68.75 0,-35.05 5.27,-59.67 15.77,-73.83 6.32,-8.47 13.26,-12.71 20.82,-12.71 8,0 14.3,3.12 18.93,9.35 7.15,9.59 10.71,23.75 10.71,42.39l-13.25 0zm68.76 95.05l6.94 0 0 18.68 -28.39 0 0 -18.68 6.95 0 0 -128.14 -6.95 0 0 -18.65 28.39 0 0 18.65 -6.94 0 0 128.14zm57.4 -77.2l42.87 0 0 16.11 -42.87 0 0 63.66 49.81 0 0 16.11 -64.32 0 0 -165.47 61.17 0 0 16.12 -46.66 0 0 53.47zm129.28 -69.59l0 165.47 -17.65 0 -32.81 -123.9 -0.61 0 0 123.9 -14.51 0 0 -165.47 17.65 0 32.81 123.9 0.61 0 0 -123.9 14.51 0zm55.52 146.79l6.94 0 0 18.68 -28.39 0 0 -18.68 6.95 0 0 -128.14 -6.95 0 0 -18.65 28.39 0 0 18.65 -6.94 0 0 128.14zm43.51 -146.79l61.81 0 0 16.12 -51.1 133.24 52.99 0 0 16.11 -67.49 0 0 -16.11 51.1 -133.24 -47.31 0 0 -16.12zm88.29 165.47l-15.12 0 31.54 -165.47 12.59 0 31.55 165.47 -15.13 0 -8.83 -48.37 -27.77 0 -8.83 48.37zm23.34 -120.5l-1.24 0 -10.09 56.01 21.42 0 -10.09 -56.01zm83.26 -45.84c7.99,0 14.29,3.12 18.92,9.35 8.83,11.87 13.05,28.02 12.62,48.37l-13.89 0c-0.4,-18.11 -2.93,-30.27 -7.56,-36.5 -2.53,-3.37 -5.9,-5.07 -10.09,-5.07 -3.77,0 -7.13,1.96 -10.09,5.94 -8.4,11.3 -12.62,31.97 -12.62,61.95 0,26 3.57,43.85 10.73,53.44 3.37,4.53 7.17,6.81 11.36,6.81 3.77,0 7.35,-2.28 10.71,-6.81 4.2,-5.65 6.52,-18.64 6.95,-39.03l15.14 0c-1.26,25.45 -5.27,42.72 -12,51.78 -5.89,7.93 -12.4,11.87 -19.53,11.87l-5.06 9.34c2.09,-1.16 4.63,-1.7 7.56,-1.7 7.15,0 10.74,3.41 10.74,10.18 0,10.75 -9.88,16.11 -29.66,16.11l-2.5 -9.31c15.55,0 23.33,-2.28 23.33,-6.8 0,-1.71 -1.27,-2.54 -3.79,-2.54 -4.2,0 -7.16,1.41 -8.83,4.24l-7.56 -0.84 8.17 -19.55c-5.46,-1.66 -10.28,-5.36 -14.5,-11 -10.49,-14.16 -15.77,-35.67 -15.77,-64.49 0,-33.96 5.68,-58.58 17.03,-73.86 5.9,-7.89 12.63,-11.88 20.19,-11.88zm63.7 122.2l-8.83 44.14 -15.13 0 31.55 -149.35 12.59 0 31.54 149.35 -15.12 0 -8.83 -44.14 -27.77 0zm3.17 -16.11l21.42 0 -10.09 -50.07 -1.23 0 -10.1 50.07zm44.14 -111.15c-5.04,11.29 -11.98,16.94 -20.81,16.94 -6.32,0 -10.92,-1.95 -13.88,-5.94 -2.54,-2.82 -6.51,-4.23 -11.97,-4.23 -5.47,0 -9.48,3.98 -11.99,11.87l-8.2 -11.87c6.29,-11.88 12.81,-17.82 19.54,-17.82 6.72,0 11.36,1.7 13.88,5.11 3.8,4.52 7.99,6.77 12.62,6.77 5.03,0 9.05,-4.53 11.98,-13.58l8.83 12.75zm68.11 16.94c9.25,12.46 13.88,36.21 13.88,71.29 0,35.67 -4.63,59.71 -13.88,72.13 -5.46,7.38 -12.38,11.04 -20.81,11.04 -8.83,0 -15.98,-3.66 -21.45,-11.04 -9.25,-12.42 -13.85,-36.46 -13.85,-72.13 0,-35.08 4.6,-58.83 13.85,-71.29 5.47,-7.35 12.62,-11.01 21.45,-11.01 8.43,0 15.35,3.66 20.81,11.01zm-33.43 12.75c-5.46,7.35 -8.18,26.86 -8.18,58.54 0,32.26 2.72,52.07 8.18,59.42 3.79,5.07 7.99,7.64 12.62,7.64 4.2,0 8.21,-2.57 11.98,-7.64 5.46,-7.35 8.21,-27.16 8.21,-59.42 0,-31.68 -2.75,-51.19 -8.21,-58.54 -3.77,-5.11 -7.78,-7.64 -11.98,-7.64 -4.63,0 -8.83,2.53 -12.62,7.64z"/>
 </g>
</svg>
