<?xml version="1.0" encoding="UTF-8"?>
<!DOCTYPE svg PUBLIC "-//W3C//DTD SVG 1.1//EN" "http://www.w3.org/Graphics/SVG/1.1/DTD/svg11.dtd">
<!-- Creator: CorelDRAW -->
<svg xmlns="http://www.w3.org/2000/svg" xml:space="preserve" width="50mm" height="50mm" version="1.1" style="shape-rendering:geometricPrecision; text-rendering:geometricPrecision; image-rendering:optimizeQuality; fill-rule:evenodd; clip-rule:evenodd"
viewBox="0 0 5000 5000"
 xmlns:xlink="http://www.w3.org/1999/xlink"
 xmlns:xodm="http://www.corel.com/coreldraw/odm/2003">
 <defs>
  <style type="text/css">
   <![CDATA[
    .str0 {stroke:#CC9F3C;stroke-width:282.22;stroke-miterlimit:22.9256}
    .str1 {stroke:#CC9F3C;stroke-width:20;stroke-miterlimit:22.9256}
    .str2 {stroke:#0F1533;stroke-width:20;stroke-miterlimit:22.9256}
    .fil0 {fill:none}
    .fil3 {fill:#CC9F3C}
    .fil1 {fill:#0F1533}
    .fil2 {fill:#F7FFF9}
    .fil4 {fill:#CC9F3C;fill-rule:nonzero}
   ]]>
  </style>
 </defs>
 <g id="Camada_x0020_1">
  <metadata id="CorelCorpID_0Corel-Layer"/>
  <circle class="fil0 str0" cx="2493.87" cy="2506.13" r="2224.82"/>
  <path class="fil1 str1" d="M2268.38 3972.18c-189.63,-1.32 -379.63,-0.1 -569.3,-0.06 -195.31,0 -340.48,9.77 -477.95,-90.72 -99.54,-72.79 -187.57,-194.3 -192.94,-375.01 -5.53,-187.92 -0.38,-384.1 -0.38,-572.94 0,-381.71 0.42,-763.47 -0.01,-1145.21 -0.23,-205.79 41.01,-304.99 154.2,-414.38 160.76,-155.51 343.18,-104.64 444.86,-127.14 0,-49.76 -6.22,-114.41 15.56,-156.11 19.24,-36.67 60.81,-67.8 116.49,-66.46 123.99,3.08 124.45,116.02 124.45,226.95l435.78 -0.02 49.26 -0.13c0,-64.99 -19.84,-224.65 125.47,-226.92 129.2,-1.98 131.26,112.31 131.26,223.59l490.68 3.4c0,-77.41 -17.89,-228.08 130.12,-226.95 51.66,0.42 91.19,30.98 109.69,65 23.15,42.55 16.71,107.56 16.71,162.03 158.84,0 277.41,0.82 393.29,77.49 86.99,57.57 161.91,148.53 195.52,274.36 29.13,109.19 24.11,780.92 15.27,927.93 -9.89,164.99 -214.44,161.26 -249.17,40.71 -30.09,-104.18 18.56,-804.46 -19.71,-920.29 -54.17,-163.81 -221.7,-143.63 -333.61,-143.63 -4.47,61.41 20.43,225.1 -128.1,227.55 -154.02,2.41 -128.55,-175.88 -131.11,-225.94l-488.67 -1.43c-2.36,55.46 20.78,229.54 -131.87,227.37 -147.5,-2.14 -122.94,-170.01 -127.55,-227.45l-481.01 0.06c-4.39,51.1 23.02,223.95 -127.16,227.5 -150.01,3.54 -130.14,-164.54 -132.43,-224.39 -178.46,-29.41 -325.9,33.67 -340.13,196.86 -13.98,160.32 -1.29,383.46 -1.29,550.49 0,370.33 0.03,740.7 0,1111.03 0,85.03 -9.16,174.02 29.44,239.93 30.12,51.6 88,96.92 167.26,104.57 137.04,13.21 625.4,1.65 824.57,1.65 96.63,0 184.9,-17.46 243.54,42.72 63.19,64.78 33.8,152.8 -22.22,191.65 -52.29,36.29 -185.42,22.7 -258.81,22.34zm-547.62 -1842.58c-157.1,61.27 -57.07,262.35 76.99,211.03 133.66,-51.12 58.13,-263.69 -76.99,-211.03zm503.87 -5.18c-131.2,30.79 -101.52,256.28 54.71,220.83 49.66,-11.3 97.74,-67.89 82.71,-134.58 -11.83,-52.36 -70.8,-101.83 -137.42,-86.25zm495.88 0.18c-141.53,34.22 -90.62,266.43 61.65,218.51 136.39,-42.97 79.19,-252.56 -61.65,-218.51zm492.21 3c-155.7,51.58 -67.45,266.36 72.06,213.13 134,-51.16 62.41,-257.65 -72.06,-213.13zm1.11 496.2c-156.63,52.49 -66.97,260.1 65.5,215.1 145.59,-49.48 64.86,-258.8 -65.5,-215.1zm-496.21 -0.28c-155.6,49.87 -69.26,262.32 65.88,215.25 142.44,-49.65 66.76,-257.74 -65.88,-215.25zm-496.15 -0.24c-143.89,44.7 -81.66,258.48 59.86,217.35 144.81,-42.06 82.76,-261.64 -59.86,-217.35zm-491.64 -2.81c-138.96,30.85 -100.16,255.91 49.27,221.88 143.73,-32.76 100.64,-255.18 -49.27,-221.88zm-2.9 499.04c-154.83,47.01 -75.78,257.16 59.41,217.49 142.84,-41.9 80.85,-260.08 -59.41,-217.49zm500.36 -2.39c-139.28,33.07 -102.2,254.02 48.26,221.65 53.65,-11.5 101.78,-67.6 87.02,-136.85 -11.46,-53.73 -70.06,-100.27 -135.28,-84.8zm1574.51 -245.76c-50.86,20.5 -63.33,49.86 -91.49,90.68 -27.24,39.57 -49.67,67.58 -78.78,109.13 -50.86,72.64 -99.01,140.87 -153.37,214.16 -385.61,519.82 -264.05,511.18 -519.03,268.25 -64.78,-61.73 -124.19,-116.93 -188.23,-179.38 -30.65,-29.91 -50.8,-62.65 -114.64,-62.32 -59.13,0.28 -96.61,31.36 -114.71,71.06 -51.2,112.22 69.82,188.83 116.12,232.88 100.25,95.35 271.55,302.36 393.83,341.33 241.29,76.88 362.76,-137.83 450.51,-263.27 100.72,-143.94 199.63,-285.45 306.06,-429.06l152.49 -214.87c56.02,-108.51 -48.72,-222.98 -158.76,-178.59zm-1482.66 -2544.5c-371.67,0 -841.8,204.53 -1135.21,424.84 -176.88,132.79 -200.38,168.48 -337.33,312.28 -22.3,23.38 -37.88,43.57 -59.32,68.84 -189.35,222.69 -367.45,594.41 -427.87,879.73 -31.17,147.09 -48.77,290.36 -53.36,430.04l0 145.83c13.02,395.39 132.95,762.19 348.73,1107.3 326.87,522.63 888.35,872.34 1495.95,973.96 26.24,4.35 89.98,15.01 117.65,15.73 50.49,0 69.98,7.27 114.89,8.54l93.72 0c21.19,-0.03 42.4,-0.03 63.63,0l5.61 0c464.04,0.29 908.27,-172.06 1272.32,-444.37 85.89,-64.27 233.84,-188.37 299.11,-273.5 156.11,-203.87 183.73,-190.59 347.6,-515.59 138.17,-274.23 209.15,-583.2 216.43,-893.94l0 -107.46c-7.2,-303.08 -74.72,-604.29 -199.33,-873.13 -78.9,-170.07 -182.01,-332.49 -302.24,-475.51 -343.44,-408.27 -779.79,-669.26 -1321.12,-764.14 -43.78,-7.72 -159.62,-21 -274.41,-28.01l-226.51 0c-16.07,2.09 -29.3,4.87 -38.94,8.56z"/>
  <rect class="fil2 str1" x="2864.75" y="3464.16" width="599.82" height="627.85"/>
  <path class="fil3 str1" d="M2531.31 3428.88c1.98,-10.83 6.11,-28.38 14.58,-45.13 8.47,-16.75 21.27,-32.7 37.65,-44.39 16.39,-11.69 36.36,-19.13 53.95,-22.58 17.6,-3.44 32.84,-2.88 47.19,1.03 14.35,3.92 27.83,11.2 52.89,32.39 25.06,21.19 61.71,56.28 107.4,99.18 45.7,42.91 100.44,93.62 145.82,136.55 45.38,42.93 81.41,78.08 104.02,97.96 22.61,19.89 31.8,24.52 38.96,26.88 7.17,2.36 12.31,2.46 17.95,1.2 5.65,-1.26 11.8,-3.88 18.37,-8.21 6.58,-4.33 13.56,-10.36 26.78,-26.02 13.22,-15.65 32.67,-40.92 60.82,-80.41 28.15,-39.49 64.99,-93.2 116.82,-166.35 51.84,-73.15 118.65,-165.75 175.39,-244.68 56.74,-78.92 103.39,-144.17 134.76,-188.22 31.37,-44.05 47.45,-66.9 61.6,-83.17 14.15,-16.27 26.36,-25.97 38.62,-33.2 12.27,-7.22 24.58,-11.97 38.08,-14.77 13.51,-2.79 28.22,-3.64 43.11,-1.58 14.89,2.07 29.96,7.04 43.55,14.62 13.6,7.59 25.71,17.79 34.54,27.28 8.83,9.5 14.38,18.29 18.92,28.44 4.54,10.15 8.08,21.66 9.74,34.38 1.67,12.73 1.47,26.67 -2.18,42 -3.64,15.33 -10.74,32.06 -97.93,158.26 -87.18,126.2 -254.46,361.88 -353.49,498.31 -99.02,136.44 -129.8,173.62 -155.53,200.49 -25.72,26.88 -46.41,43.44 -70.01,57.63 -23.6,14.2 -50.12,26.04 -72.72,33.37 -22.59,7.33 -41.25,10.15 -62.14,10.63 -20.88,0.49 -43.98,-1.36 -63.23,-4.36 -19.25,-3 -34.66,-7.14 -51.06,-13.55 -16.39,-6.41 -33.79,-15.1 -52.66,-26.8 -18.87,-11.69 -39.21,-26.39 -56.41,-39.78 -17.2,-13.39 -31.24,-25.46 -50.86,-43.58 -19.61,-18.11 -44.8,-42.27 -89.83,-86.57 -45.02,-44.3 -109.9,-108.74 -148.94,-147.23 -39.04,-38.49 -52.25,-51.02 -62.75,-62.07 -10.5,-11.04 -18.28,-20.59 -24.97,-30.27 -6.69,-9.68 -12.27,-19.49 -16.14,-27.35 -3.86,-7.85 -6.01,-13.75 -7.48,-18.33 -1.46,-4.57 -2.25,-7.83 -2.94,-11.43 -0.69,-3.6 -1.27,-7.56 -1.66,-11.59 -0.38,-4.03 -0.55,-8.14 1.42,-18.98z"/>
  <path class="fil1 str2" d="M2536.51 3207.62c-98.55,13.92 -143.91,47.26 -153.56,87.27 -9.66,40.01 16.38,86.69 -78.21,136.23 -94.59,49.55 -309.81,101.98 -471.22,110.25 -161.42,8.28 -269.03,-27.59 -335.25,-182.11 -66.22,-154.51 -91.06,-427.68 -78.64,-680.15 12.42,-252.46 62.08,-484.24 216.6,-597.36 154.52,-113.13 413.88,-107.62 692.57,-117.27 278.68,-9.66 576.67,-34.5 769.81,-15.18 193.15,19.31 281.45,82.78 329.73,173.84 48.29,91.05 56.57,209.69 49.67,347.66 -6.89,137.96 -28.97,295.23 -121.41,420.77 -92.43,125.55 -255.22,219.37 -412.5,263.51 -157.28,44.15 -309.03,38.63 -407.59,52.54z"/>
  <path class="fil4" d="M1752.26 1898.81l0 401.96 78.74 0 0 100.33 -209.55 0 0 -502.29 130.81 0zm299.93 0l0 502.29 -125.1 0 0 -269.66c0,-38.95 -0.95,-62.45 -2.75,-70.28 -1.91,-7.83 -6.99,-13.86 -15.35,-17.88 -8.36,-4.02 -26.98,-6.04 -55.88,-6.04l-12.38 0 0 -58.31c60.54,-12.91 106.47,-39.69 137.8,-80.12l73.66 0zm350.41 294.43c0,50.49 -1.16,86.15 -3.6,107.11 -2.33,21.06 -9.73,40.21 -22.22,57.57 -12.49,17.36 -29.42,30.69 -50.7,40 -21.27,9.32 -46.03,13.98 -74.29,13.98 -26.88,0 -50.91,-4.45 -72.29,-13.23 -21.37,-8.79 -38.63,-21.91 -51.54,-39.48 -13.01,-17.57 -20.74,-36.72 -23.28,-57.36 -2.43,-20.75 -3.7,-56.94 -3.7,-108.59l0 -85.93c0,-50.49 1.16,-86.15 3.59,-107.11 2.33,-21.06 9.74,-40.21 22.23,-57.57 12.49,-17.36 29.42,-30.69 50.69,-40.01 21.28,-9.31 46.04,-13.97 74.3,-13.97 26.88,0 50.9,4.45 72.28,13.23 21.38,8.79 38.63,21.91 51.54,39.48 13.02,17.57 20.75,36.72 23.29,57.36 2.43,20.74 3.7,56.94 3.7,108.59l0 85.93zm-130.81 -164.99c0,-23.28 -1.27,-38.21 -3.81,-44.77 -2.54,-6.45 -7.73,-9.74 -15.56,-9.74 -6.66,0 -11.74,2.65 -15.34,7.94 -3.5,5.19 -5.29,20.75 -5.29,46.57l0 234.42c0,29.1 1.16,47.1 3.49,53.87 2.33,6.88 7.72,10.26 16.19,10.26 8.68,0 14.29,-3.91 16.72,-11.74 2.44,-7.83 3.6,-26.57 3.6,-56.09l0 -230.72zm-345.54 864.24l-130.81 0 0 -87.21c0,-25.4 -1.38,-41.17 -4.13,-47.52 -2.75,-6.24 -8.89,-9.42 -18.31,-9.42 -10.58,0 -17.36,3.81 -20.22,11.43 -2.85,7.73 -4.33,24.24 -4.33,49.64l0 233.05c0,24.44 1.48,40.32 4.33,47.83 2.86,7.41 9.32,11.11 19.27,11.11 9.63,0 15.98,-3.7 18.94,-11.21 2.96,-7.41 4.45,-24.98 4.45,-52.6l0 -63.19 130.81 0 0 19.58c0,52.07 -3.71,89.01 -11.01,110.71 -7.3,21.8 -23.6,40.85 -48.68,57.25 -25.19,16.41 -56.1,24.56 -92.93,24.56 -38.2,0 -69.74,-6.88 -94.61,-20.75 -24.77,-13.86 -41.28,-33.02 -49.32,-57.57 -8.04,-24.56 -12.06,-61.39 -12.06,-110.6l0 -146.68c0,-36.2 1.27,-63.29 3.7,-81.39 2.54,-18.1 9.84,-35.56 22.22,-52.28 12.28,-16.72 29.32,-29.95 51.12,-39.58 21.8,-9.63 46.89,-14.4 75.25,-14.4 38.42,0 70.17,7.41 95.25,22.34 24.98,14.81 41.38,33.33 49.32,55.56 7.83,22.22 11.75,56.72 11.75,103.61l0 47.73zm177.59 -219.08l0 401.96 78.74 0 0 100.33 -209.55 0 0 -502.29 130.81 0zm110.7 0l217.8 0 0 100.33 -86.99 0 0 95.89 81.28 0 0 95.25 -81.28 0 0 110.49 95.88 0 0 100.33 -226.69 0 0 -502.29zm489.15 0l74.72 502.29 -133.45 0 -7.09 -90.17 -47.1 0 -7.09 90.17 -135.15 0 66.25 -502.29 188.91 0zm-69.32 323.22c-6.24,-56.94 -12.8,-127.42 -19.79,-211.56 -12.91,96.52 -21.06,167 -24.55,211.56l44.34 0zm457.94 -323.22l0 502.29 -114.3 0 -67.94 -228.39 0 228.39 -109.22 0 0 -502.29 109.22 0 73.02 226.17 0 -226.17 109.22 0z"/>
  <circle class="fil3 str1" cx="2917.3" cy="2188.31" r="112.39"/>
 </g>
</svg>
