<?xml version="1.0" encoding="UTF-8"?>
<!DOCTYPE svg PUBLIC "-//W3C//DTD SVG 1.1//EN" "http://www.w3.org/Graphics/SVG/1.1/DTD/svg11.dtd">
<!-- Creator: CorelDRAW -->
<svg xmlns="http://www.w3.org/2000/svg" xml:space="preserve" width="50mm" height="50mm" version="1.1" style="shape-rendering:geometricPrecision; text-rendering:geometricPrecision; image-rendering:optimizeQuality; fill-rule:evenodd; clip-rule:evenodd"
viewBox="0 0 5000 5000"
 xmlns:xlink="http://www.w3.org/1999/xlink"
 xmlns:xodm="http://www.corel.com/coreldraw/odm/2003">
 <defs>
  <style type="text/css">
   <![CDATA[
    .fil2 {fill:#ED3237}
    .fil5 {fill:#0F69B2}
    .fil0 {fill:black}
    .fil1 {fill:#38B6FF}
    .fil3 {fill:#83D816}
    .fil4 {fill:#EC5480}
   ]]>
  </style>
 </defs>
 <g id="Camada_x0020_1">
  <metadata id="CorelCorpID_0Corel-Layer"/>
  <g id="_2073287945664">
   <path class="fil0" d="M966.52 1123.04c-115.01,0 -124.14,35.12 -168.74,109.8l-209.46 347.62c-28.86,52.74 -27.32,445.88 -37.43,519.65 -5.48,40.01 -7.12,73.67 -6.77,127.69 0.39,61.57 -9.58,78.32 -10.19,133.88 -1.1,98.41 -5.94,169.08 -8.92,269.63l-19.56 268.57c-5.06,93.83 -9.33,179.2 -9.25,269.3l-15.47 263.06c-6.85,45.22 -2.39,84.6 -3.74,130.73 -1.5,51.24 -10.6,72.11 -10.02,134.06 0.52,56.17 -3.4,84.48 -8.1,126.35l-29.83 671.32c-1.96,166.28 -78.23,470.25 57.24,470.25l4014.79 0c126.89,0 66,-206.76 67.29,-326.62 0.68,-62.08 -8.45,-82.72 -9.97,-134.09 -2.98,-100.55 -7.83,-171.23 -8.92,-269.63l-29.19 -527.88c0.59,-57.72 -5.5,-81.82 -9.1,-125.37 -3.82,-46.26 3.23,-94.54 -3.13,-140.94l-54.81 -1059.35c0.46,-59.03 -8.62,-74.12 -10.11,-124.35l-37.53 -663.61 -104.41 -174.13c-180.49,-298.99 -131.61,-295.94 -357.19,-295.94 1.52,-68.38 65.9,-236.07 51.9,-281.65 -22.74,-74.01 -136.59,-79.6 -242,-104.54 -187.2,-44.3 -379.16,-88.31 -568.68,-132.46 -12.72,-152.8 -118.72,-276.9 -218.37,-377.13 -106.05,-106.67 -249.5,-167.54 -401.11,-179.95l-116.93 0c-165.19,13.38 -331.21,83.45 -461.79,213.7 -112.46,112.18 -35.04,86.18 -226.09,110.08l-747.36 88.26c-158.3,16.06 -115.14,77.13 -83.76,364.24 4.87,44.61 13.46,94.99 17.76,145.51 4.11,48.3 17.93,108.29 18.95,153.94zm1277.84 -808.78c-22.03,2.55 -55.4,5.26 -72.61,5.89 -17.22,0.63 -18.31,-0.82 -10.19,-7.49 8.11,-6.67 25.42,-18.57 50.94,-32.46 25.52,-13.88 59.23,-29.75 91.96,-41.48 32.72,-11.71 64.46,-19.28 102.33,-23.97 37.86,-4.69 81.86,-6.49 117.48,-5.05 35.61,1.44 62.83,6.13 97,17.49 34.17,11.36 75.28,29.39 106.66,45.17 31.37,15.78 53.01,29.31 79.51,51.03 26.51,21.73 57.89,51.67 79.35,74.21 21.45,22.53 32.99,37.68 44.9,54.9 11.89,17.22 24.16,36.51 33.63,54.19 9.46,17.67 16.13,33.71 19.29,42.54 3.15,8.85 2.79,10.47 -9.01,8.75 -11.81,-1.7 -35.08,-6.75 -68.53,-14.6 -33.45,-7.84 -77.08,-18.47 -105.12,-24.07 -28.04,-5.59 -40.49,-6.13 -51.4,-4.87 -10.91,1.26 -20.27,4.33 -29.74,10.46 -9.47,6.12 -19.02,15.33 -24.62,23.44 -5.59,8.11 -7.21,15.14 -13.54,44.76 -6.34,29.63 -17.38,81.84 -29.48,133.77 -12.1,51.93 -25.26,103.59 -32.91,135.61 -7.66,32.04 -9.8,44.43 -11.35,52.31 -1.55,7.87 -2.51,11.21 -7.75,13.59 -5.25,2.39 -14.79,3.82 -29.69,7.15 -14.91,3.34 -35.18,8.6 -45.56,10.26 -10.37,1.67 -10.84,-0.23 -12.27,-13.59 -1.43,-13.35 -3.82,-38.16 -9.07,-88.72 -5.25,-50.56 -13.35,-126.86 -20.26,-188.16 -6.92,-61.29 -12.65,-107.55 -18.85,-154.66 -6.2,-47.1 -12.87,-95.02 -18.36,-124.71 -5.49,-29.7 -9.78,-41.15 -17.29,-50.93 -7.51,-9.78 -18.24,-17.88 -30.16,-22.29 -11.93,-4.41 -25.05,-5.13 -43.89,-3.82 -18.83,1.32 -43.4,4.65 -61.03,7.52 -17.64,2.87 -28.34,5.28 -50.37,7.83z"/>
   <polygon class="fil1" points="580.96,4798.31 4414.63,4798.49 4248.36,1718.28 738.59,1714.05 "/>
   <path class="fil2" d="M1082.85 623.59c-7.5,80.46 89.44,767.94 103.2,924.05l405.06 -0.02c-35.22,-232.97 -147.27,-342.64 31.7,-383.16 49.64,-11.26 97.22,-23.77 147.22,-35.44 95.74,-22.33 198.05,-47.3 294.19,-70.32 37.71,-9.03 266.72,-57.65 300.33,-79.72l-57.65 -496.59c-36.53,-5.5 -1160.96,123.21 -1224.05,141.2z"/>
   <path class="fil0" d="M1785.22 2381.27c0,293.74 -16.94,506.67 138.93,713.76 287.78,382.37 855.21,379.11 1138.83,-0.23 158.38,-211.83 139.08,-415.59 139.08,-713.53 8.19,-33.63 192.4,-75.06 163.63,-286.67 -37.99,-279.47 -444.8,-282.05 -492.65,-7.51 -22.62,129.84 40.46,208.74 130.4,264.4 34.2,21.17 15.17,-1.81 32.01,29.78 0,231.85 26.7,419.54 -92.99,592.68 -224.22,324.33 -674.03,318.37 -893.78,5.83 -123.99,-176.34 -96.85,-358.04 -96.85,-598.51 17.01,-32.09 33.05,-27.11 62.42,-47.29 71.41,-49.08 114.65,-142.16 101.24,-238.71 -38.57,-277.66 -445.92,-285 -492.67,-9.13 -23.32,137.63 42.62,207.9 131.52,265.85 34.15,22.25 14.39,-2.4 30.88,29.28z"/>
   <path class="fil3" d="M2796.59 879.43c236.19,-40.8 207.71,-85.86 279.29,218.13 33.41,141.9 85.28,311.47 106.91,449.96l485.72 0.03 143.75 -622.78 -975.12 -227.41 -40.55 182.07z"/>
   <path class="fil4" d="M1709.24 1317.85l53.91 229.36 1248.29 0.36 -121.26 -511.12c-60.09,2.07 -494.91,115.08 -595.06,138.04l-585.88 143.36z"/>
   <polygon class="fil5" points="3838.8,1544.62 4176.31,1546.25 4030.3,1297.77 3897.68,1297.8 "/>
   <path class="fil5" d="M811.22 1546.01l207.24 0.18 -29.37 -248.68c-52.33,3.68 -43.29,19.33 -99.79,113.38 -25.34,42.15 -56.99,89.09 -78.08,135.12z"/>
   <path class="fil5" d="M1793.8 2169.55c67.02,-58.48 84.64,-46.26 150.18,-0.55 38.74,-164.88 -194.5,-154.79 -150.18,0.55z"/>
   <path class="fil5" d="M3039.5 2163.81c2.31,-1.4 5.58,-6.56 6.68,-4.6 1.1,1.92 5.07,-3.51 6.58,-4.49 20.81,-13.53 34.39,-23.37 65.05,-22.79 39.71,0.76 57.5,21.85 75.65,37.6 41.99,-150.36 -173.31,-174.17 -153.96,-5.72z"/>
  </g>
 </g>
</svg>
