<?xml version="1.0" encoding="UTF-8"?>
<!DOCTYPE svg PUBLIC "-//W3C//DTD SVG 1.1//EN" "http://www.w3.org/Graphics/SVG/1.1/DTD/svg11.dtd">
<!-- Creator: CorelDRAW -->
<svg xmlns="http://www.w3.org/2000/svg" xml:space="preserve" width="6.54mm" height="6.54mm" version="1.1" style="shape-rendering:geometricPrecision; text-rendering:geometricPrecision; image-rendering:optimizeQuality; fill-rule:evenodd; clip-rule:evenodd"
viewBox="0 0 654 654"
 xmlns:xlink="http://www.w3.org/1999/xlink"
 xmlns:xodm="http://www.corel.com/coreldraw/odm/2003">
 <defs>
  <style type="text/css">
   <![CDATA[
    .fil0 {fill:#38B6FF}
   ]]>
  </style>
 </defs>
 <g id="Camada_x0020_1">
  <metadata id="CorelCorpID_0Corel-Layer"/>
  <path class="fil0" d="M298.17 342.4l0 -169.63c0,-23.47 33.56,-34.75 47.6,-12.2 5.04,8.1 3.66,16.66 3.66,29.29l-0.02 131.82c-0.15,13.28 -1.2,9.13 11.31,21.64 17.01,17.01 109.18,107.32 114.69,115.95 12.65,19.82 -5.53,39.34 -17.37,39.34 -16.56,0 -17.63,-2.38 -29.59,-14.34l-116.55 -116.54c-6.88,-6.88 -13.73,-11.92 -13.73,-25.33zm15.78 -324.61l21.55 0c22.13,0.75 44.2,3.8 65.69,9.26 27.82,7.06 56.45,18.94 80.28,33.21 22.76,13.63 34.91,22.78 53.74,40.22 16.98,15.73 20.93,19.72 36.49,39.18 39.93,49.93 62.31,114.82 64.51,180.7l0 21.55c-0.75,22.13 -3.8,44.2 -9.26,65.68 -7.07,27.83 -18.94,56.45 -33.21,80.28 -4.96,8.29 -9.57,15.43 -14.88,22.95 -2.8,3.97 -5.03,7.32 -8.27,11.26 -2.91,3.55 -5.48,6.38 -8.3,10 -19.48,24.93 -54.17,52.42 -81.58,68.52 -7.99,4.69 -16.11,9.38 -24.76,13.07 -18.64,7.96 -34.17,14.53 -55.74,19.92 -34.8,8.7 -51.29,9.01 -85.74,9.02l-1.65 0c-42.99,0 -93.15,-15.03 -122.06,-29.27 -31.9,-15.72 -42.87,-24.36 -68.84,-44.65 -11.19,-8.74 -19.72,-18.68 -28.44,-27.7l-13.25 -14.82c-1.66,-2.12 -2.75,-3.78 -4.15,-5.61 -1.67,-2.19 -2.59,-2.99 -4.39,-5.37 -9.45,-12.62 -25.26,-38.54 -31.36,-52.84 -23.41,-54.81 -28.94,-82.35 -28.94,-143.13 0,-42.99 15.03,-93.15 29.27,-122.06 8.56,-17.37 17.39,-32.43 28.08,-47.58 2.8,-3.97 5.03,-7.33 8.27,-11.26 19.2,-23.36 32.48,-37.02 56.25,-56.02 49.94,-39.94 114.81,-62.31 180.69,-64.51z"/>
 </g>
</svg>
